<svg width="137" height="37" viewBox="0 0 137 37" fill="none" xmlns="http://www.w3.org/2000/svg">
<path fill-rule="evenodd" clip-rule="evenodd" d="M70.5912 7.499C70.5912 9.01447 69.3208 10.2353 67.7438 10.2353C66.1668 10.2353 64.8965 9.01447 64.8965 7.499C64.8965 5.98351 66.1231 4.7627 67.7438 4.7627C69.3646 4.8048 70.5912 6.0256 70.5912 7.499ZM58.8514 13.0143C58.8514 13.2669 58.8514 13.6879 58.8514 13.6879C58.8514 13.6879 57.4936 12.0039 54.6023 12.0039C49.8275 12.0039 46.104 15.498 46.104 20.3391C46.104 25.1382 49.7838 28.6742 54.6023 28.6742C57.5373 28.6742 58.8514 26.9483 58.8514 26.9483V27.664C58.8514 28.0008 59.1143 28.2534 59.4647 28.2534H63.013V12.4249C63.013 12.4249 59.7714 12.4249 59.4647 12.4249C59.1143 12.4249 58.8514 12.7196 58.8514 13.0143ZM58.8513 23.1599C58.1943 24.086 56.8801 24.8858 55.3031 24.8858C52.4996 24.8858 50.353 23.202 50.353 20.3394C50.353 17.4768 52.4996 15.793 55.3031 15.793C56.8362 15.793 58.238 16.6348 58.8513 17.5189V23.1599ZM65.6411 12.4248H69.8465V28.2533H65.6411V12.4248ZM128.458 12.0042C125.567 12.0042 124.209 13.6881 124.209 13.6881V4.80566H120.004V28.2536C120.004 28.2536 123.246 28.2536 123.552 28.2536C123.903 28.2536 124.166 27.959 124.166 27.6643V26.9486C124.166 26.9486 125.523 28.6745 128.415 28.6745C133.189 28.6745 136.913 25.1384 136.913 20.3394C136.913 15.5404 133.189 12.0042 128.458 12.0042ZM127.758 24.843C126.137 24.843 124.867 24.043 124.209 23.1169V17.476C124.867 16.634 126.268 15.75 127.758 15.75C130.561 15.75 132.708 17.4338 132.708 20.2966C132.708 23.1591 130.561 24.843 127.758 24.843ZM117.814 18.8657V28.2954H113.608V19.3288C113.608 16.7188 112.732 15.6664 110.367 15.6664C109.096 15.6664 107.782 16.2978 106.95 17.2239V28.2534H102.745V12.4249H106.074C106.424 12.4249 106.687 12.7196 106.687 13.0143V13.6879C107.914 12.467 109.534 12.0039 111.155 12.0039C112.995 12.0039 114.528 12.5092 115.755 13.5194C117.244 14.6981 117.814 16.2136 117.814 18.8657ZM92.538 12.0042C89.6468 12.0042 88.2889 13.6881 88.2889 13.6881V4.80566H84.0835V28.2536C84.0835 28.2536 87.325 28.2536 87.6317 28.2536C87.9822 28.2536 88.245 27.959 88.245 27.6643V26.9486C88.245 26.9486 89.603 28.6745 92.4941 28.6745C97.269 28.6745 100.992 25.1384 100.992 20.3394C101.036 15.5404 97.3128 12.0042 92.538 12.0042ZM91.8372 24.843C90.2165 24.843 88.9461 24.043 88.2891 23.1169V17.476C88.9461 16.634 90.3479 15.75 91.8372 15.75C94.6408 15.75 96.7873 17.4338 96.7873 20.2966C96.7873 23.1591 94.6408 24.843 91.8372 24.843ZM80.4478 12.0039C81.7181 12.0039 82.3752 12.2145 82.3752 12.2145V15.9611C82.3752 15.9611 78.8708 14.8244 76.6805 17.2239V28.2954H72.4751V12.4249C72.4751 12.4249 75.7168 12.4249 76.0234 12.4249C76.3738 12.4249 76.6366 12.7196 76.6366 13.0143V13.6879C77.4251 12.8038 79.1335 12.0039 80.4478 12.0039ZM34.8331 26.2248C34.6427 25.7844 34.4524 25.3073 34.2622 24.9036C33.9575 24.243 33.6531 23.6191 33.3866 23.032L33.3486 22.9952C30.7221 17.4902 27.9052 11.9119 24.936 6.40692L24.8218 6.18673C24.5173 5.63624 24.2128 5.04904 23.9083 4.46184C23.5277 3.80124 23.147 3.10395 22.538 2.44336C21.3199 0.975364 19.5688 0.167969 17.7036 0.167969C15.8003 0.167969 14.0874 0.975364 12.8312 2.36995C12.2603 3.03055 11.8415 3.72785 11.4609 4.38843C11.1564 4.97563 10.8518 5.56283 10.5473 6.11333L10.4331 6.33353C7.50207 11.8385 4.64716 17.4169 2.02065 22.9218L1.98258 22.9952C1.71611 23.5824 1.41159 24.2064 1.10707 24.8669C0.916744 25.2706 0.726417 25.711 0.536089 26.1881C0.0412377 27.546 -0.111024 28.8305 0.079303 30.1517C0.498023 32.9041 2.4013 35.2163 5.02782 36.2439C6.01752 36.6476 7.04529 36.831 8.11113 36.831C8.41565 36.831 8.7963 36.7943 9.10082 36.7576C10.357 36.6108 11.6512 36.2071 12.9074 35.5098C14.4681 34.6657 15.9525 33.4546 17.6275 31.6931C19.3024 33.4546 20.825 34.6657 22.3476 35.5098C23.6038 36.2071 24.898 36.6108 26.1541 36.7576C26.4586 36.7943 26.8393 36.831 27.1438 36.831C28.2097 36.831 29.2755 36.6476 30.2272 36.2439C32.8918 35.2163 34.7569 32.8675 35.1757 30.1517C35.4801 28.8671 35.3279 27.5826 34.8331 26.2248ZM17.7009 27.7473C15.7264 25.3252 14.4466 23.0455 14.0079 21.1219C13.825 20.3027 13.7884 19.5902 13.8982 18.9491C13.9713 18.3792 14.1906 17.8805 14.4833 17.4531C15.178 16.4913 16.348 15.8857 17.7009 15.8857C19.0538 15.8857 20.2605 16.4557 20.9187 17.4531C21.2112 17.8805 21.4305 18.3792 21.5037 18.9491C21.6134 19.5902 21.5769 20.3382 21.3939 21.1219C20.9552 23.0098 19.6754 25.2894 17.7009 27.7473ZM32.541 29.5921C32.2805 31.4569 30.978 33.0707 29.1544 33.788C28.2611 34.1465 27.2935 34.2542 26.326 34.1465C25.3955 34.0391 24.4651 33.7521 23.4975 33.2142C22.1576 32.4969 20.8179 31.3852 19.2549 29.7355C21.7111 26.8307 23.1997 24.1768 23.7579 21.81C24.0185 20.6982 24.0558 19.694 23.9441 18.7616C23.7952 17.8651 23.4602 17.0403 22.9392 16.323C21.7856 14.7091 19.8503 13.7768 17.6918 13.7768C15.5332 13.7768 13.5979 14.7451 12.4443 16.323C11.9232 17.0403 11.5883 17.8651 11.4394 18.7616C11.2906 19.694 11.3278 20.7341 11.6255 21.81C12.1838 24.1768 13.7096 26.8665 16.1286 29.7714C14.6028 31.4211 13.2258 32.5328 11.886 33.25C10.9184 33.788 9.988 34.0749 9.0576 34.1825C8.05276 34.29 7.08514 34.1465 6.22917 33.8239C4.40557 33.1066 3.10301 31.4928 2.84249 29.6279C2.73085 28.7314 2.80527 27.8348 3.17744 26.8307C3.2891 26.472 3.47516 26.1135 3.66125 25.6831C3.92177 25.1093 4.21949 24.4996 4.51723 23.8899L4.55444 23.8183C7.12236 18.4748 9.87636 13.0237 12.742 7.71605L12.8537 7.50087C13.1514 6.96293 13.4491 6.38913 13.7468 5.8512C14.0446 5.2774 14.3795 4.73947 14.7889 4.27326C15.5704 3.41256 16.6125 2.94635 17.7662 2.94635C18.9199 2.94635 19.9619 3.41256 20.7435 4.27326C21.1529 4.73947 21.4877 5.2774 21.7856 5.8512C22.0833 6.38913 22.381 6.96293 22.6787 7.50087L22.7903 7.71605C25.6188 13.0595 28.3728 18.5106 30.9407 23.8541V23.8899C31.2384 24.4638 31.4989 25.1093 31.7967 25.6831C31.9828 26.1135 32.1688 26.472 32.2805 26.8307C32.5783 27.763 32.6898 28.6596 32.541 29.5921Z" fill="#A2AECF"/>
</svg>
