<svg width="166" height="125" viewBox="0 0 166 125" fill="none" xmlns="http://www.w3.org/2000/svg">
<path d="M140.525 10.367C129.943 5.57568 118.6 2.03424 106.738 0.0204859C106.633 0.00012556 106.523 0.0132465 106.425 0.0580344C106.327 0.102822 106.246 0.177061 106.192 0.27047C104.739 2.8328 103.121 6.17286 101.987 8.81158C89.4062 6.92445 76.6164 6.92445 64.036 8.81158C62.7726 5.88719 61.3479 3.03573 59.7685 0.27047C59.715 0.175911 59.634 0.0999929 59.5364 0.0528458C59.4387 0.00569869 59.3291 -0.0104355 59.2221 0.0065973C47.3673 2.02035 36.0243 5.56179 25.4352 10.3601C25.3441 10.3984 25.2668 10.4639 25.2138 10.5476C3.6898 42.3163 -2.20995 73.3004 0.688054 103.896C0.696119 103.971 0.719286 104.043 0.756147 104.109C0.793007 104.174 0.84279 104.232 0.902465 104.278C13.4655 113.46 27.4779 120.456 42.3529 124.971C42.4565 125.003 42.5675 125.003 42.6711 124.97C42.7747 124.938 42.8663 124.875 42.9338 124.79C46.1292 120.485 48.9788 115.936 51.4134 111.159C51.5587 110.881 51.4203 110.548 51.1298 110.437C46.6618 108.748 42.3327 106.709 38.1822 104.34C38.1076 104.297 38.0448 104.237 37.9993 104.163C37.9539 104.09 37.9272 104.007 37.9217 103.921C37.9162 103.835 37.9321 103.749 37.9679 103.671C38.0037 103.592 38.0583 103.524 38.1269 103.472C38.9984 102.826 39.8698 102.153 40.6998 101.479C40.7745 101.419 40.8645 101.38 40.9598 101.368C41.055 101.355 41.1518 101.37 41.2393 101.41C68.4003 113.659 97.816 113.659 124.659 101.41C124.747 101.368 124.844 101.351 124.941 101.362C125.038 101.373 125.129 101.411 125.205 101.472C126.035 102.153 126.9 102.826 127.778 103.472C127.847 103.523 127.903 103.59 127.94 103.668C127.977 103.746 127.994 103.831 127.99 103.917C127.986 104.003 127.96 104.087 127.916 104.161C127.872 104.234 127.81 104.296 127.737 104.34C123.601 106.729 119.299 108.749 114.782 110.43C114.713 110.455 114.65 110.495 114.597 110.547C114.544 110.599 114.503 110.661 114.476 110.73C114.449 110.799 114.437 110.873 114.441 110.947C114.445 111.021 114.465 111.093 114.499 111.159C116.988 115.93 119.838 120.471 122.971 124.783C123.036 124.872 123.127 124.938 123.231 124.973C123.335 125.007 123.447 125.009 123.552 124.978C138.453 120.475 152.488 113.477 165.065 104.278C165.126 104.234 165.178 104.179 165.216 104.114C165.254 104.049 165.278 103.977 165.286 103.903C168.744 68.5299 159.49 37.7958 140.74 10.5615C140.694 10.473 140.618 10.404 140.525 10.367ZM55.4734 85.2649C47.2981 85.2649 40.5546 77.8418 40.5546 68.7382C40.5546 59.6277 47.1667 52.2115 55.4734 52.2115C63.8423 52.2115 70.5236 59.6902 70.3922 68.7382C70.3922 77.8487 63.7801 85.2649 55.4734 85.2649ZM110.632 85.2649C102.45 85.2649 95.7134 77.8418 95.7134 68.7382C95.7134 59.6277 102.319 52.2115 110.632 52.2115C119.001 52.2115 125.682 59.6902 125.551 68.7382C125.551 77.8487 119.008 85.2649 110.632 85.2649Z" fill="white"/>
</svg>
