<svg width="94" height="31" viewBox="0 0 94 31" fill="none" xmlns="http://www.w3.org/2000/svg">
<path fill-rule="evenodd" clip-rule="evenodd" d="M12.1576 11.1277V14.3287L19.9858 14.3254C19.7458 16.0908 19.1365 17.3835 18.2103 18.2882C17.0687 19.4039 15.2871 20.632 12.1576 20.632C7.33428 20.632 3.56021 16.8324 3.56021 12.1177C3.56021 7.40297 7.33428 3.60331 12.1576 3.60331C14.7609 3.60331 16.661 4.6034 18.0642 5.88921L20.3751 3.63052C18.4196 1.80383 15.8163 0.402344 12.1607 0.402344C5.55572 0.402344 0 5.66131 0 12.1177C0 18.5741 5.55572 23.8329 12.1607 23.8329C15.7256 23.8329 18.4165 22.69 20.5212 20.547C22.686 18.4311 23.3583 15.4615 23.3583 13.0599C23.3583 12.3455 23.3029 11.6857 23.1952 11.1277H12.1576ZM78.1892 23.3735V1.2627H74.8828V23.3735H78.1892ZM32.4189 23.8358C36.6853 23.8358 40.1624 20.6348 40.1624 16.2909C40.1624 11.9164 36.6853 8.74609 32.4189 8.74609C28.151 8.74609 24.6738 11.9164 24.6738 16.2909C24.6738 20.6348 28.151 23.8358 32.4189 23.8358ZM32.4188 11.7197C34.7574 11.7197 36.7729 13.577 36.7729 16.2916C36.7729 18.9756 34.7574 20.8634 32.4188 20.8634C30.0802 20.8634 28.0647 18.9789 28.0647 16.2916C28.0647 13.577 30.0802 11.7197 32.4188 11.7197ZM49.1259 23.8358C53.3923 23.8358 56.8695 20.6348 56.8695 16.2909C56.8695 11.9164 53.3923 8.74609 49.1259 8.74609C44.858 8.74609 41.3809 11.9198 41.3809 16.2909C41.3809 20.6348 44.858 23.8358 49.1259 23.8358ZM49.1261 11.7197C51.4647 11.7197 53.4802 13.577 53.4802 16.2916C53.4802 18.9756 51.4647 20.8634 49.1261 20.8634C46.7875 20.8634 44.772 18.9789 44.772 16.2916C44.772 13.577 46.7875 11.7197 49.1261 11.7197ZM72.8812 9.20532V22.7473C72.8812 28.3192 69.5179 30.595 65.5438 30.595C61.8021 30.595 59.5496 28.1492 58.7004 26.149L61.6513 24.9482C62.1775 26.1762 63.4653 27.6253 65.5392 27.6253C68.084 27.6253 69.661 26.0911 69.661 23.2032V22.118H69.5425C68.784 23.033 67.3224 23.8325 65.4777 23.8325C61.6175 23.8325 58.0803 20.5464 58.0803 16.3182C58.0803 12.0594 61.6175 8.74609 65.4777 8.74609C67.3178 8.74609 68.781 9.54543 69.5425 10.4333H69.661V9.20532H72.8812ZM69.9011 16.3188C69.9011 13.6621 68.0872 11.7197 65.7794 11.7197C63.4408 11.7197 61.4822 13.6621 61.4822 16.3188C61.4822 18.9484 63.4408 20.8634 65.7794 20.8634C68.0872 20.8634 69.9011 18.9484 69.9011 16.3188ZM91.0745 18.7746L93.7055 20.4891C92.8562 21.7171 90.8099 23.8329 87.2728 23.8329C82.8879 23.8329 79.6123 20.5197 79.6123 16.288C79.6123 11.8013 82.9156 8.74316 86.8943 8.74316C90.9007 8.74316 92.8592 11.859 93.5008 13.543L93.8516 14.4002L83.531 18.5773C84.3218 20.0911 85.5496 20.8633 87.2728 20.8633C88.999 20.8633 90.1975 20.0333 91.0745 18.7746ZM82.9742 16.0604L89.8731 13.2609C89.4946 12.3186 88.353 11.6621 87.0083 11.6621C85.2866 11.6621 82.888 13.1486 82.9742 16.0604Z" fill="#A2AECF"/>
</svg>
