<svg width="136" height="23" viewBox="0 0 136 23" fill="none" xmlns="http://www.w3.org/2000/svg">
<path fill-rule="evenodd" clip-rule="evenodd" d="M17.4943 0.175781L12.7989 12.1544L8.07567 0.175781H0V21.8856H5.81172V7.53312L11.5184 21.8856H14.0828L19.7582 7.53312V21.8856H25.5699V0.175781H17.4943Z" fill="#A2AECF"/>
<path fill-rule="evenodd" clip-rule="evenodd" d="M37.3559 17.8508V16.448C36.8174 15.6999 35.5992 15.3409 34.4566 15.3409C33.1038 15.3409 31.8528 15.9292 31.8528 17.1644C31.8528 18.3996 33.1038 18.9879 34.4566 18.9879C35.5992 18.9879 36.8174 18.5973 37.3559 17.8492V17.8508ZM37.3558 21.8836V20.3211C36.3429 21.4898 34.3859 22.2743 32.2894 22.2743C29.7891 22.2743 26.6846 20.6121 26.6846 17.0963C26.6846 13.2911 29.7874 12.0243 32.2894 12.0243C34.4565 12.0243 36.3806 12.7044 37.3558 13.8779V12.3153C37.3558 10.9489 36.1442 10.0047 34.0461 10.0047C32.4241 10.0047 30.802 10.6215 29.487 11.6969L27.5629 8.21278C29.6594 6.4889 32.4618 5.77246 34.9572 5.77246C38.8761 5.77246 42.5634 7.17529 42.5634 12.0559V21.8852H37.3558V21.8836Z" fill="#A2AECF"/>
<path fill-rule="evenodd" clip-rule="evenodd" d="M43.2676 19.834L45.4297 16.2565C46.6479 17.294 49.2451 18.3695 51.1758 18.3695C52.7272 18.3695 53.3691 17.9424 53.3691 17.2624C53.3691 15.3107 43.8783 17.3256 43.8783 10.9489C43.8783 8.18115 46.3787 5.77246 50.8671 5.77246C53.6384 5.77246 55.9335 6.61859 57.6918 7.85377L55.7037 11.4075C54.7219 10.4918 52.8635 9.67729 50.9065 9.67729C49.6884 9.67729 48.879 10.1344 48.879 10.7527C48.879 12.4766 58.3321 10.6895 58.3321 17.1343C58.3321 20.1234 55.6002 22.2743 50.9377 22.2743C48.0007 22.2743 44.9947 21.3285 43.2676 19.834Z" fill="#A2AECF"/>
<path fill-rule="evenodd" clip-rule="evenodd" d="M70.3957 21.8856V12.7332C70.3957 10.8196 69.3499 10.2012 67.6885 10.2012C66.1699 10.2012 65.1569 11.0109 64.5528 11.7274V21.884H59.3452V0.175781H64.5528V8.0835C65.528 6.97642 67.4586 5.77444 70.1905 5.77444C73.9106 5.77444 75.5967 7.79249 75.5967 10.6899V21.8856H70.3957Z" fill="#A2AECF"/>
<path fill-rule="evenodd" clip-rule="evenodd" d="M87.3202 17.8507V16.4479C86.7801 15.6998 85.5635 15.3408 84.4143 15.3408C83.0615 15.3408 81.8105 15.9292 81.8105 17.1643C81.8105 18.3995 83.0615 18.9879 84.4143 18.9879C85.5635 18.9879 86.7801 18.5972 87.3202 17.8491V17.8507ZM87.3204 21.8836V20.3211C86.3058 21.4898 84.3439 22.2743 82.254 22.2743C79.752 22.2743 76.6426 20.6121 76.6426 17.0963C76.6426 13.2911 79.752 12.0243 82.254 12.0243C84.4145 12.0243 86.3386 12.7044 87.3204 13.8779V12.3153C87.3204 10.9489 86.1006 10.0047 84.0107 10.0047C82.3886 10.0047 80.765 10.6215 79.445 11.6969L77.5209 8.21278C79.6174 6.4889 82.4198 5.77246 84.9218 5.77246C88.839 5.77246 92.5197 7.17529 92.5197 12.0559V21.8852H87.3204V21.8836Z" fill="#A2AECF"/>
<path fill-rule="evenodd" clip-rule="evenodd" d="M102.518 17.851C104.577 17.851 106.135 16.3801 106.135 14.0078C106.135 11.6671 104.577 10.1963 102.518 10.1963C101.402 10.1963 100.056 10.783 99.4087 11.6292V16.4481C100.056 17.2943 101.403 17.851 102.518 17.851ZM94.2075 21.884V0.175781H99.4085V8.02024C100.567 6.58422 102.356 5.75318 104.243 5.77444C108.328 5.77444 111.439 8.86794 111.439 14.008C111.439 19.3457 108.264 22.2747 104.243 22.2747C102.416 22.2747 100.761 21.5582 99.4085 20.0621V21.8856H94.2075V21.884Z" fill="#A2AECF"/>
<path fill-rule="evenodd" clip-rule="evenodd" d="M112.485 0.175781H117.686V21.8856H112.485V0.175781Z" fill="#A2AECF"/>
<path fill-rule="evenodd" clip-rule="evenodd" d="M127.382 9.80664C125.116 9.80664 124.24 11.1098 124.033 12.247H130.761C130.621 11.1399 129.78 9.80664 127.382 9.80664ZM118.73 14.0076C118.73 9.45429 122.276 5.77246 127.382 5.77246C132.21 5.77246 135.725 9.18859 135.725 14.5263V15.6698H124.105C124.476 17.0663 125.829 18.2398 128.19 18.2398C129.339 18.2398 131.23 17.7511 132.179 16.9049L134.436 20.1914C132.819 21.5879 130.114 22.2743 127.618 22.2743C122.585 22.2743 118.73 19.1175 118.73 14.0076Z" fill="#A2AECF"/>
</svg>
