<svg width="81" height="30" viewBox="0 0 81 30" fill="none" xmlns="http://www.w3.org/2000/svg">
<path fill-rule="evenodd" clip-rule="evenodd" d="M8.89129 29.5053C6.49028 29.4086 4.52484 28.7425 2.98876 27.5054C2.6958 27.2691 1.99673 26.5606 1.76268 26.2617C1.13956 25.4677 0.714855 24.6949 0.432748 23.8376C-0.436821 21.1985 0.0111389 17.7353 1.71308 13.9346C3.17011 10.6806 5.41766 7.4533 9.3408 2.98358C9.91741 2.32586 11.6379 0.402344 11.6503 0.402344C11.6535 0.402344 11.5604 0.56698 11.4426 0.767458C10.4227 2.49883 9.55005 4.53823 9.07419 6.30378C8.31003 9.13676 8.40303 11.568 9.3439 13.4531C9.99336 14.7519 11.1063 15.8768 12.3587 16.4987C14.5505 17.5869 17.759 17.6769 21.676 16.7621C21.9457 16.6988 35.3132 13.1022 51.3824 8.76955C67.4516 4.43653 80.6005 0.894168 80.6021 0.89708C80.6067 0.900834 43.2711 17.0934 23.8879 25.494C20.8188 26.824 19.9988 27.1599 18.5558 27.6733C14.8667 28.9863 11.562 29.6128 8.89129 29.5053Z" fill="#A2AECF"/>
</svg>
