<svg width="79" height="34" viewBox="0 0 79 34" fill="none" xmlns="http://www.w3.org/2000/svg">
<path fill-rule="evenodd" clip-rule="evenodd" d="M5.50294 13.4234C5.50294 12.5532 6.21002 12.2185 7.36287 12.2185C9.02297 12.2185 11.0981 12.7317 12.7582 13.6468V8.40251C10.9598 7.66615 9.16131 7.37604 7.36287 7.37604C2.93592 7.37604 0 9.74153 0 13.6914C0 19.8503 8.26978 18.8685 8.26978 21.5241C8.26978 22.5503 7.40898 22.8852 6.17928 22.8852C4.38083 22.8852 2.07513 22.1264 0.245941 21.1V26.411C2.25959 27.3037 4.30397 27.6829 6.17928 27.6829C10.7138 27.6829 13.8342 25.3846 13.8342 21.3901C13.8035 14.7402 5.50294 15.9228 5.50294 13.4234ZM20.2286 2.91309L14.9101 4.0734L14.8948 21.9479C14.8948 25.2507 17.3081 27.6829 20.5361 27.6829C22.3191 27.6829 23.6257 27.3482 24.3481 26.9466V22.4165C23.6564 22.7067 20.2133 23.7331 20.2133 20.4304V12.5086H24.3481V7.75546H20.2133L20.2286 2.91309ZM31.1116 9.40638L30.7735 7.75512H26.0698V27.2809H31.5113V14.048C32.7871 12.3298 34.9698 12.6422 35.6462 12.8876V7.75512C34.9545 7.48729 32.4028 6.99633 31.1116 9.40638ZM36.968 7.75488H42.4402V27.2806H36.968V7.75488ZM36.9681 6.05921L42.4403 4.85419V0.324219L36.9681 1.50696V6.05906V6.05921ZM53.8151 7.37604C51.6785 7.37604 50.295 8.40251 49.5418 9.11673L49.2498 7.73316H44.4693V33.7525L49.9108 32.5699L49.9261 26.2548C50.7101 26.8349 51.8629 27.6606 53.7843 27.6606C57.6886 27.6606 61.2394 24.4472 61.2394 17.3734C61.2087 10.9018 57.6272 7.37604 53.8151 7.37604ZM52.5084 22.7511C51.2172 22.7511 50.4486 22.2827 49.926 21.7024L49.9106 13.4233C50.4794 12.7763 51.2633 12.3301 52.5084 12.3301C54.4759 12.3301 55.8594 14.6061 55.8594 17.5294C55.8594 20.5197 54.5067 22.7511 52.5084 22.7511ZM78.3938 17.5964C78.3938 11.8837 75.6885 7.37604 70.5391 7.37604C65.3436 7.37604 62.2078 11.8839 62.2078 17.5519C62.2078 24.2687 65.9123 27.6606 71.2308 27.6606C73.8132 27.6606 75.7807 27.0581 77.2564 26.2101V21.747C75.7807 22.5058 74.0745 22.9746 71.9225 22.9746C69.8166 22.9746 67.9413 22.2157 67.6954 19.5825H78.3477C78.3477 19.2923 78.3938 18.1319 78.3938 17.5964ZM67.6338 15.4757C67.6338 12.9542 69.1402 11.9053 70.5082 11.9053C71.8455 11.9053 73.2597 12.9542 73.2597 15.4757H67.6338Z" fill="#A2AECF"/>
</svg>
