<svg width="106" height="23" viewBox="0 0 106 23" fill="none" xmlns="http://www.w3.org/2000/svg">
<path fill-rule="evenodd" clip-rule="evenodd" d="M16.6023 1.23431V13.0486C16.6023 16.9937 14.8079 18.632 10.5953 18.632C6.38417 18.632 4.58828 16.9937 4.58828 13.0486V0.716797H0.532403C0.17695 0.716797 0 0.889532 0 1.23431V13.2424C0 19.8399 4.32286 22.1466 10.5953 22.1466C16.8692 22.1466 21.1905 19.8399 21.1905 13.2424V0.716797H17.1347C16.7808 0.716797 16.6023 0.889532 16.6023 1.23431Z" fill="#A2AECF"/>
<path fill-rule="evenodd" clip-rule="evenodd" d="M75.4055 4.14478C75.7377 4.14478 75.8929 4.03713 76.0031 3.79966L77.1781 0.975371C77.2449 0.803345 77.1781 0.716797 77.0012 0.716797H60.6643C59.1354 0.716797 58.5596 1.16957 58.5596 2.18276V20.5294C58.5596 21.392 59.0019 21.78 60.177 21.78H75.4055C75.7377 21.78 75.8929 21.672 76.0031 21.4353L77.1781 18.6106C77.2449 18.4382 77.1781 18.352 77.0012 18.352H63.0594V14.6222C63.0594 13.3286 63.7905 12.7463 65.7618 12.7463H71.8138C72.1475 12.7463 72.3011 12.6391 72.4129 12.402L73.5429 9.68535C73.6096 9.51265 73.5429 9.42675 73.3659 9.42675H63.0594V4.14478H75.4055Z" fill="#A2AECF"/>
<path fill-rule="evenodd" clip-rule="evenodd" d="M42.3933 18.3959H34.3887V14.5366C34.3887 13.243 35.1198 12.6611 37.0941 12.6611H42.3933C44.942 12.6611 45.6514 13.6095 45.6514 15.5502C45.6514 17.4904 44.942 18.3959 42.3933 18.3959ZM34.3887 4.10156H41.5505C43.9455 4.10156 44.6099 4.97861 44.6099 6.79639C44.6099 8.61446 43.9455 9.49157 41.5505 9.49157H34.3887V4.10156ZM46.6496 10.677C48.4222 9.77155 49.1533 8.06851 49.1533 6.06354C49.1533 1.40668 45.2526 0.716797 41.2185 0.716797H31.9969C30.468 0.716797 29.8921 1.16957 29.8921 2.18276V20.5294C29.8921 21.392 30.3345 21.78 31.5095 21.78H42.8591C47.137 21.78 50.1963 20.1631 50.1963 15.959C50.1963 13.4367 49.0881 11.3022 46.6496 10.677Z" fill="#A2AECF"/>
<path fill-rule="evenodd" clip-rule="evenodd" d="M97.0308 10.4826H89.4949V4.10156H97.0308C99.8465 4.10156 100.467 5.15767 100.467 7.2921C100.467 9.44788 99.8465 10.4826 97.0308 10.4826ZM105.498 21.4134L100.644 13.3072C103.061 12.7038 105.011 11.1517 105.011 7.2062C105.011 2.09692 101.753 0.716797 96.3665 0.716797H87.1014C85.571 0.716797 84.9951 1.16957 84.9951 2.18276V21.2626C84.9951 21.6072 85.1721 21.78 85.5275 21.78H89.4949V15.6358C89.4949 14.3422 90.226 13.7599 92.1989 13.7599H96.1895L100.578 21.4353C100.711 21.6506 100.845 21.78 101.177 21.78H105.299C105.588 21.78 105.588 21.5425 105.498 21.4134Z" fill="#A2AECF"/>
</svg>
