<?xml version="1.0" encoding="utf-8"?><svg xmlns="http://www.w3.org/2000/svg" xmlns:xlink="http://www.w3.org/1999/xlink"><symbol viewBox="0 0 137 37" id="airbnb" xmlns="http://www.w3.org/2000/svg"><path fill-rule="evenodd" clip-rule="evenodd" d="M70.5912 7.499C70.5912 9.01447 69.3208 10.2353 67.7438 10.2353C66.1668 10.2353 64.8965 9.01447 64.8965 7.499C64.8965 5.98351 66.1231 4.7627 67.7438 4.7627C69.3646 4.8048 70.5912 6.0256 70.5912 7.499ZM58.8514 13.0143C58.8514 13.2669 58.8514 13.6879 58.8514 13.6879C58.8514 13.6879 57.4936 12.0039 54.6023 12.0039C49.8275 12.0039 46.104 15.498 46.104 20.3391C46.104 25.1382 49.7838 28.6742 54.6023 28.6742C57.5373 28.6742 58.8514 26.9483 58.8514 26.9483V27.664C58.8514 28.0008 59.1143 28.2534 59.4647 28.2534H63.013V12.4249C63.013 12.4249 59.7714 12.4249 59.4647 12.4249C59.1143 12.4249 58.8514 12.7196 58.8514 13.0143ZM58.8513 23.1599C58.1943 24.086 56.8801 24.8858 55.3031 24.8858C52.4996 24.8858 50.353 23.202 50.353 20.3394C50.353 17.4768 52.4996 15.793 55.3031 15.793C56.8362 15.793 58.238 16.6348 58.8513 17.5189V23.1599ZM65.6411 12.4248H69.8465V28.2533H65.6411V12.4248ZM128.458 12.0042C125.567 12.0042 124.209 13.6881 124.209 13.6881V4.80566H120.004V28.2536C120.004 28.2536 123.246 28.2536 123.552 28.2536C123.903 28.2536 124.166 27.959 124.166 27.6643V26.9486C124.166 26.9486 125.523 28.6745 128.415 28.6745C133.189 28.6745 136.913 25.1384 136.913 20.3394C136.913 15.5404 133.189 12.0042 128.458 12.0042ZM127.758 24.843C126.137 24.843 124.867 24.043 124.209 23.1169V17.476C124.867 16.634 126.268 15.75 127.758 15.75C130.561 15.75 132.708 17.4338 132.708 20.2966C132.708 23.1591 130.561 24.843 127.758 24.843ZM117.814 18.8657V28.2954H113.608V19.3288C113.608 16.7188 112.732 15.6664 110.367 15.6664C109.096 15.6664 107.782 16.2978 106.95 17.2239V28.2534H102.745V12.4249H106.074C106.424 12.4249 106.687 12.7196 106.687 13.0143V13.6879C107.914 12.467 109.534 12.0039 111.155 12.0039C112.995 12.0039 114.528 12.5092 115.755 13.5194C117.244 14.6981 117.814 16.2136 117.814 18.8657ZM92.538 12.0042C89.6468 12.0042 88.2889 13.6881 88.2889 13.6881V4.80566H84.0835V28.2536C84.0835 28.2536 87.325 28.2536 87.6317 28.2536C87.9822 28.2536 88.245 27.959 88.245 27.6643V26.9486C88.245 26.9486 89.603 28.6745 92.4941 28.6745C97.269 28.6745 100.992 25.1384 100.992 20.3394C101.036 15.5404 97.3128 12.0042 92.538 12.0042ZM91.8372 24.843C90.2165 24.843 88.9461 24.043 88.2891 23.1169V17.476C88.9461 16.634 90.3479 15.75 91.8372 15.75C94.6408 15.75 96.7873 17.4338 96.7873 20.2966C96.7873 23.1591 94.6408 24.843 91.8372 24.843ZM80.4478 12.0039C81.7181 12.0039 82.3752 12.2145 82.3752 12.2145V15.9611C82.3752 15.9611 78.8708 14.8244 76.6805 17.2239V28.2954H72.4751V12.4249C72.4751 12.4249 75.7168 12.4249 76.0234 12.4249C76.3738 12.4249 76.6366 12.7196 76.6366 13.0143V13.6879C77.4251 12.8038 79.1335 12.0039 80.4478 12.0039ZM34.8331 26.2248C34.6427 25.7844 34.4524 25.3073 34.2622 24.9036C33.9575 24.243 33.6531 23.6191 33.3866 23.032L33.3486 22.9952C30.7221 17.4902 27.9052 11.9119 24.936 6.40692L24.8218 6.18673C24.5173 5.63624 24.2128 5.04904 23.9083 4.46184C23.5277 3.80124 23.147 3.10395 22.538 2.44336C21.3199 0.975364 19.5688 0.167969 17.7036 0.167969C15.8003 0.167969 14.0874 0.975364 12.8312 2.36995C12.2603 3.03055 11.8415 3.72785 11.4609 4.38843C11.1564 4.97563 10.8518 5.56283 10.5473 6.11333L10.4331 6.33353C7.50207 11.8385 4.64716 17.4169 2.02065 22.9218L1.98258 22.9952C1.71611 23.5824 1.41159 24.2064 1.10707 24.8669C0.916744 25.2706 0.726417 25.711 0.536089 26.1881C0.0412377 27.546 -0.111024 28.8305 0.079303 30.1517C0.498023 32.9041 2.4013 35.2163 5.02782 36.2439C6.01752 36.6476 7.04529 36.831 8.11113 36.831C8.41565 36.831 8.7963 36.7943 9.10082 36.7576C10.357 36.6108 11.6512 36.2071 12.9074 35.5098C14.4681 34.6657 15.9525 33.4546 17.6275 31.6931C19.3024 33.4546 20.825 34.6657 22.3476 35.5098C23.6038 36.2071 24.898 36.6108 26.1541 36.7576C26.4586 36.7943 26.8393 36.831 27.1438 36.831C28.2097 36.831 29.2755 36.6476 30.2272 36.2439C32.8918 35.2163 34.7569 32.8675 35.1757 30.1517C35.4801 28.8671 35.3279 27.5826 34.8331 26.2248ZM17.7009 27.7473C15.7264 25.3252 14.4466 23.0455 14.0079 21.1219C13.825 20.3027 13.7884 19.5902 13.8982 18.9491C13.9713 18.3792 14.1906 17.8805 14.4833 17.4531C15.178 16.4913 16.348 15.8857 17.7009 15.8857C19.0538 15.8857 20.2605 16.4557 20.9187 17.4531C21.2112 17.8805 21.4305 18.3792 21.5037 18.9491C21.6134 19.5902 21.5769 20.3382 21.3939 21.1219C20.9552 23.0098 19.6754 25.2894 17.7009 27.7473ZM32.541 29.5921C32.2805 31.4569 30.978 33.0707 29.1544 33.788C28.2611 34.1465 27.2935 34.2542 26.326 34.1465C25.3955 34.0391 24.4651 33.7521 23.4975 33.2142C22.1576 32.4969 20.8179 31.3852 19.2549 29.7355C21.7111 26.8307 23.1997 24.1768 23.7579 21.81C24.0185 20.6982 24.0558 19.694 23.9441 18.7616C23.7952 17.8651 23.4602 17.0403 22.9392 16.323C21.7856 14.7091 19.8503 13.7768 17.6918 13.7768C15.5332 13.7768 13.5979 14.7451 12.4443 16.323C11.9232 17.0403 11.5883 17.8651 11.4394 18.7616C11.2906 19.694 11.3278 20.7341 11.6255 21.81C12.1838 24.1768 13.7096 26.8665 16.1286 29.7714C14.6028 31.4211 13.2258 32.5328 11.886 33.25C10.9184 33.788 9.988 34.0749 9.0576 34.1825C8.05276 34.29 7.08514 34.1465 6.22917 33.8239C4.40557 33.1066 3.10301 31.4928 2.84249 29.6279C2.73085 28.7314 2.80527 27.8348 3.17744 26.8307C3.2891 26.472 3.47516 26.1135 3.66125 25.6831C3.92177 25.1093 4.21949 24.4996 4.51723 23.8899L4.55444 23.8183C7.12236 18.4748 9.87636 13.0237 12.742 7.71605L12.8537 7.50087C13.1514 6.96293 13.4491 6.38913 13.7468 5.8512C14.0446 5.2774 14.3795 4.73947 14.7889 4.27326C15.5704 3.41256 16.6125 2.94635 17.7662 2.94635C18.9199 2.94635 19.9619 3.41256 20.7435 4.27326C21.1529 4.73947 21.4877 5.2774 21.7856 5.8512C22.0833 6.38913 22.381 6.96293 22.6787 7.50087L22.7903 7.71605C25.6188 13.0595 28.3728 18.5106 30.9407 23.8541V23.8899C31.2384 24.4638 31.4989 25.1093 31.7967 25.6831C31.9828 26.1135 32.1688 26.472 32.2805 26.8307C32.5783 27.763 32.6898 28.6596 32.541 29.5921Z"/></symbol><symbol viewBox="0 0 166 125" id="discord" xmlns="http://www.w3.org/2000/svg"><path d="M140.525 10.367C129.943 5.57568 118.6 2.03424 106.738 0.0204859C106.633 0.00012556 106.523 0.0132465 106.425 0.0580344C106.327 0.102822 106.246 0.177061 106.192 0.27047C104.739 2.8328 103.121 6.17286 101.987 8.81158C89.4062 6.92445 76.6164 6.92445 64.036 8.81158C62.7726 5.88719 61.3479 3.03573 59.7685 0.27047C59.715 0.175911 59.634 0.0999929 59.5364 0.0528458C59.4387 0.00569869 59.3291 -0.0104355 59.2221 0.0065973C47.3673 2.02035 36.0243 5.56179 25.4352 10.3601C25.3441 10.3984 25.2668 10.4639 25.2138 10.5476C3.6898 42.3163 -2.20995 73.3004 0.688054 103.896C0.696119 103.971 0.719286 104.043 0.756147 104.109C0.793007 104.174 0.84279 104.232 0.902465 104.278C13.4655 113.46 27.4779 120.456 42.3529 124.971C42.4565 125.003 42.5675 125.003 42.6711 124.97C42.7747 124.938 42.8663 124.875 42.9338 124.79C46.1292 120.485 48.9788 115.936 51.4134 111.159C51.5587 110.881 51.4203 110.548 51.1298 110.437C46.6618 108.748 42.3327 106.709 38.1822 104.34C38.1076 104.297 38.0448 104.237 37.9993 104.163C37.9539 104.09 37.9272 104.007 37.9217 103.921C37.9162 103.835 37.9321 103.749 37.9679 103.671C38.0037 103.592 38.0583 103.524 38.1269 103.472C38.9984 102.826 39.8698 102.153 40.6998 101.479C40.7745 101.419 40.8645 101.38 40.9598 101.368C41.055 101.355 41.1518 101.37 41.2393 101.41C68.4003 113.659 97.816 113.659 124.659 101.41C124.747 101.368 124.844 101.351 124.941 101.362C125.038 101.373 125.129 101.411 125.205 101.472C126.035 102.153 126.9 102.826 127.778 103.472C127.847 103.523 127.903 103.59 127.94 103.668C127.977 103.746 127.994 103.831 127.99 103.917C127.986 104.003 127.96 104.087 127.916 104.161C127.872 104.234 127.81 104.296 127.737 104.34C123.601 106.729 119.299 108.749 114.782 110.43C114.713 110.455 114.65 110.495 114.597 110.547C114.544 110.599 114.503 110.661 114.476 110.73C114.449 110.799 114.437 110.873 114.441 110.947C114.445 111.021 114.465 111.093 114.499 111.159C116.988 115.93 119.838 120.471 122.971 124.783C123.036 124.872 123.127 124.938 123.231 124.973C123.335 125.007 123.447 125.009 123.552 124.978C138.453 120.475 152.488 113.477 165.065 104.278C165.126 104.234 165.178 104.179 165.216 104.114C165.254 104.049 165.278 103.977 165.286 103.903C168.744 68.5299 159.49 37.7958 140.74 10.5615C140.694 10.473 140.618 10.404 140.525 10.367ZM55.4734 85.2649C47.2981 85.2649 40.5546 77.8418 40.5546 68.7382C40.5546 59.6277 47.1667 52.2115 55.4734 52.2115C63.8423 52.2115 70.5236 59.6902 70.3922 68.7382C70.3922 77.8487 63.7801 85.2649 55.4734 85.2649ZM110.632 85.2649C102.45 85.2649 95.7134 77.8418 95.7134 68.7382C95.7134 59.6277 102.319 52.2115 110.632 52.2115C119.001 52.2115 125.682 59.6902 125.551 68.7382C125.551 77.8487 119.008 85.2649 110.632 85.2649Z"/></symbol><symbol viewBox="0 0 20 20" id="facebook" xmlns="http://www.w3.org/2000/svg"><path d="M3.65187 0C1.6289 0 0 1.6289 0 3.65187V16.3481C0 18.3711 1.6289 20 3.65187 20H10.5331V12.1812H8.46562V9.36624H10.5331V6.96125C10.5331 5.07175 11.7547 3.33687 14.5687 3.33687C15.7081 3.33687 16.5506 3.44625 16.5506 3.44625L16.4843 6.07501C16.4843 6.07501 15.6251 6.06689 14.6875 6.06689C13.6727 6.06689 13.51 6.53445 13.51 7.31065V9.36626H16.565L16.4318 12.1813H13.51V20H16.3481C18.3711 20 20 18.3711 20 16.3481V3.65189C20 1.62892 18.3711 2e-05 16.3481 2e-05L3.65187 0Z"/></symbol><symbol viewBox="0 0 94 31" id="google" xmlns="http://www.w3.org/2000/svg"><path fill-rule="evenodd" clip-rule="evenodd" d="M12.1576 11.1277V14.3287L19.9858 14.3254C19.7458 16.0908 19.1365 17.3835 18.2103 18.2882C17.0687 19.4039 15.2871 20.632 12.1576 20.632C7.33428 20.632 3.56021 16.8324 3.56021 12.1177C3.56021 7.40297 7.33428 3.60331 12.1576 3.60331C14.7609 3.60331 16.661 4.6034 18.0642 5.88921L20.3751 3.63052C18.4196 1.80383 15.8163 0.402344 12.1607 0.402344C5.55572 0.402344 0 5.66131 0 12.1177C0 18.5741 5.55572 23.8329 12.1607 23.8329C15.7256 23.8329 18.4165 22.69 20.5212 20.547C22.686 18.4311 23.3583 15.4615 23.3583 13.0599C23.3583 12.3455 23.3029 11.6857 23.1952 11.1277H12.1576ZM78.1892 23.3735V1.2627H74.8828V23.3735H78.1892ZM32.4189 23.8358C36.6853 23.8358 40.1624 20.6348 40.1624 16.2909C40.1624 11.9164 36.6853 8.74609 32.4189 8.74609C28.151 8.74609 24.6738 11.9164 24.6738 16.2909C24.6738 20.6348 28.151 23.8358 32.4189 23.8358ZM32.4188 11.7197C34.7574 11.7197 36.7729 13.577 36.7729 16.2916C36.7729 18.9756 34.7574 20.8634 32.4188 20.8634C30.0802 20.8634 28.0647 18.9789 28.0647 16.2916C28.0647 13.577 30.0802 11.7197 32.4188 11.7197ZM49.1259 23.8358C53.3923 23.8358 56.8695 20.6348 56.8695 16.2909C56.8695 11.9164 53.3923 8.74609 49.1259 8.74609C44.858 8.74609 41.3809 11.9198 41.3809 16.2909C41.3809 20.6348 44.858 23.8358 49.1259 23.8358ZM49.1261 11.7197C51.4647 11.7197 53.4802 13.577 53.4802 16.2916C53.4802 18.9756 51.4647 20.8634 49.1261 20.8634C46.7875 20.8634 44.772 18.9789 44.772 16.2916C44.772 13.577 46.7875 11.7197 49.1261 11.7197ZM72.8812 9.20532V22.7473C72.8812 28.3192 69.5179 30.595 65.5438 30.595C61.8021 30.595 59.5496 28.1492 58.7004 26.149L61.6513 24.9482C62.1775 26.1762 63.4653 27.6253 65.5392 27.6253C68.084 27.6253 69.661 26.0911 69.661 23.2032V22.118H69.5425C68.784 23.033 67.3224 23.8325 65.4777 23.8325C61.6175 23.8325 58.0803 20.5464 58.0803 16.3182C58.0803 12.0594 61.6175 8.74609 65.4777 8.74609C67.3178 8.74609 68.781 9.54543 69.5425 10.4333H69.661V9.20532H72.8812ZM69.9011 16.3188C69.9011 13.6621 68.0872 11.7197 65.7794 11.7197C63.4408 11.7197 61.4822 13.6621 61.4822 16.3188C61.4822 18.9484 63.4408 20.8634 65.7794 20.8634C68.0872 20.8634 69.9011 18.9484 69.9011 16.3188ZM91.0745 18.7746L93.7055 20.4891C92.8562 21.7171 90.8099 23.8329 87.2728 23.8329C82.8879 23.8329 79.6123 20.5197 79.6123 16.288C79.6123 11.8013 82.9156 8.74316 86.8943 8.74316C90.9007 8.74316 92.8592 11.859 93.5008 13.543L93.8516 14.4002L83.531 18.5773C84.3218 20.0911 85.5496 20.8633 87.2728 20.8633C88.999 20.8633 90.1975 20.0333 91.0745 18.7746ZM82.9742 16.0604L89.8731 13.2609C89.4946 12.3186 88.353 11.6621 87.0083 11.6621C85.2866 11.6621 82.888 13.1486 82.9742 16.0604Z"/></symbol><symbol viewBox="0 0 24 25" id="heart" xmlns="http://www.w3.org/2000/svg"><path fill-rule="evenodd" clip-rule="evenodd" d="M12.6924 7.58373C12.3055 7.95505 11.6945 7.95505 11.3076 7.58373L10.6152 6.91927C9.80477 6.14154 8.70994 5.66667 7.5 5.66667C5.01472 5.66667 3 7.68139 3 10.1667C3 12.5493 4.28979 14.5167 6.15176 16.1332C8.01532 17.7511 10.2434 18.8241 11.5746 19.3717C11.853 19.4862 12.147 19.4862 12.4254 19.3717C13.7566 18.8241 15.9847 17.7511 17.8482 16.1332C19.7102 14.5167 21 12.5493 21 10.1667C21 7.68139 18.9853 5.66667 16.5 5.66667C15.2901 5.66667 14.1952 6.14154 13.3848 6.91927L12.6924 7.58373ZM12 5.47624C10.8321 4.35548 9.24649 3.66667 7.5 3.66667C3.91015 3.66667 1 6.57682 1 10.1667C1 16.5349 7.97034 20.0517 10.8138 21.2214C11.5796 21.5364 12.4204 21.5364 13.1862 21.2214C16.0297 20.0517 23 16.5349 23 10.1667C23 6.57682 20.0899 3.66667 16.5 3.66667C14.7535 3.66667 13.1679 4.35548 12 5.47624Z"/></symbol><symbol viewBox="0 0 24 24" id="heart-line" xmlns="http://www.w3.org/2000/svg"><path d="M12.001 4.52853C14.35 2.42 17.98 2.49 20.2426 4.75736C22.5053 7.02472 22.583 10.637 20.4786 12.993L11.9999 21.485L3.52138 12.993C1.41705 10.637 1.49571 7.01901 3.75736 4.75736C6.02157 2.49315 9.64519 2.41687 12.001 4.52853ZM18.827 6.1701C17.3279 4.66794 14.9076 4.60701 13.337 6.01687L12.0019 7.21524L10.6661 6.01781C9.09098 4.60597 6.67506 4.66808 5.17157 6.17157C3.68183 7.66131 3.60704 10.0473 4.97993 11.6232L11.9999 18.6543L19.0201 11.6232C20.3935 10.0467 20.319 7.66525 18.827 6.1701Z"/></symbol><symbol viewBox="0 0 24 24" id="id-card-line" xmlns="http://www.w3.org/2000/svg"><path d="M3 6H21V18H3V6ZM2 4C1.44772 4 1 4.44772 1 5V19C1 19.5523 1.44772 20 2 20H22C22.5523 20 23 19.5523 23 19V5C23 4.44772 22.5523 4 22 4H2ZM13 8H19V10H13V8ZM18 12H13V14H18V12ZM10.5 10C10.5 11.3807 9.38071 12.5 8 12.5C6.61929 12.5 5.5 11.3807 5.5 10C5.5 8.61929 6.61929 7.5 8 7.5C9.38071 7.5 10.5 8.61929 10.5 10ZM8 13.5C6.067 13.5 4.5 15.067 4.5 17H11.5C11.5 15.067 9.933 13.5 8 13.5Z"/></symbol><symbol viewBox="0 0 20 20" id="instagram" xmlns="http://www.w3.org/2000/svg"><path d="M19.9356 5.90309C19.9244 5.06334 19.7669 4.23193 19.4702 3.44606C19.213 2.78318 18.82 2.18117 18.3165 1.67849C17.813 1.17581 17.21 0.783514 16.546 0.526666C15.7689 0.235455 14.948 0.0779923 14.1182 0.0609825C13.0498 0.0133053 12.711 0 9.99889 0C7.28676 0 6.93914 7.43489e-08 5.8785 0.0609825C5.04904 0.0781174 4.22851 0.235578 3.4518 0.526666C2.78771 0.783335 2.18461 1.17557 1.68107 1.67827C1.17753 2.18097 0.784639 2.78308 0.527543 3.44606C0.235263 4.22124 0.07788 5.04059 0.0621946 5.86872C0.014438 6.93647 0 7.27464 0 9.98226C0 12.6899 -8.27475e-09 13.0358 0.0621946 14.0958C0.0788538 14.9252 0.235451 15.7434 0.527543 16.5207C0.785071 17.1835 1.17825 17.7853 1.68196 18.2878C2.18567 18.7903 2.78883 19.1824 3.45291 19.439C4.22749 19.7419 5.04817 19.9106 5.87961 19.9379C6.94913 19.9856 7.28787 20 10 20C12.7121 20 13.0598 20 14.1204 19.9379C14.9502 19.9216 15.7712 19.7645 16.5482 19.4733C17.212 19.2162 17.8149 18.8238 18.3183 18.3211C18.8218 17.8185 19.2149 17.2166 19.4725 16.5539C19.7646 15.7778 19.9211 14.9595 19.9378 14.1291C19.9856 13.0624 20 12.7242 20 10.0155C19.9978 7.30791 19.9978 6.96419 19.9356 5.90309ZM9.99223 15.1026C7.15571 15.1026 4.85784 12.8085 4.85784 9.97672C4.85784 7.14492 7.15571 4.85087 9.99223 4.85087C11.354 4.85087 12.6599 5.39091 13.6228 6.3522C14.5857 7.31348 15.1266 8.61726 15.1266 9.97672C15.1266 11.3362 14.5857 12.64 13.6228 13.6012C12.6599 14.5625 11.354 15.1026 9.99223 15.1026ZM15.331 5.85653C15.1737 5.85667 15.0179 5.82586 14.8726 5.76584C14.7273 5.70582 14.5953 5.61779 14.4841 5.50677C14.3729 5.39575 14.2847 5.26393 14.2246 5.11885C14.1644 4.97377 14.1336 4.81828 14.1337 4.66127C14.1337 4.50438 14.1647 4.34903 14.2248 4.20408C14.285 4.05913 14.3731 3.92743 14.4842 3.81649C14.5953 3.70555 14.7273 3.61755 14.8725 3.55751C15.0176 3.49747 15.1733 3.46657 15.3304 3.46657C15.4876 3.46657 15.6432 3.49747 15.7884 3.55751C15.9336 3.61755 16.0655 3.70555 16.1766 3.81649C16.2877 3.92743 16.3759 4.05913 16.436 4.20408C16.4961 4.34903 16.5271 4.50438 16.5271 4.66127C16.5271 5.3221 15.9918 5.85653 15.331 5.85653Z"/><path d="M9.99266 13.3058C11.8346 13.3058 13.3278 11.815 13.3278 9.97612C13.3278 8.13721 11.8346 6.64648 9.99266 6.64648C8.15068 6.64648 6.65747 8.13721 6.65747 9.97612C6.65747 11.815 8.15068 13.3058 9.99266 13.3058Z"/></symbol><symbol viewBox="0 0 136 23" id="mashable" xmlns="http://www.w3.org/2000/svg"><path fill-rule="evenodd" clip-rule="evenodd" d="M17.4943 0.175781L12.7989 12.1544L8.07567 0.175781H0V21.8856H5.81172V7.53312L11.5184 21.8856H14.0828L19.7582 7.53312V21.8856H25.5699V0.175781H17.4943Z"/><path fill-rule="evenodd" clip-rule="evenodd" d="M37.3559 17.8508V16.448C36.8174 15.6999 35.5992 15.3409 34.4566 15.3409C33.1038 15.3409 31.8528 15.9292 31.8528 17.1644C31.8528 18.3996 33.1038 18.9879 34.4566 18.9879C35.5992 18.9879 36.8174 18.5973 37.3559 17.8492V17.8508ZM37.3558 21.8836V20.3211C36.3429 21.4898 34.3859 22.2743 32.2894 22.2743C29.7891 22.2743 26.6846 20.6121 26.6846 17.0963C26.6846 13.2911 29.7874 12.0243 32.2894 12.0243C34.4565 12.0243 36.3806 12.7044 37.3558 13.8779V12.3153C37.3558 10.9489 36.1442 10.0047 34.0461 10.0047C32.4241 10.0047 30.802 10.6215 29.487 11.6969L27.5629 8.21278C29.6594 6.4889 32.4618 5.77246 34.9572 5.77246C38.8761 5.77246 42.5634 7.17529 42.5634 12.0559V21.8852H37.3558V21.8836Z"/><path fill-rule="evenodd" clip-rule="evenodd" d="M43.2676 19.834L45.4297 16.2565C46.6479 17.294 49.2451 18.3695 51.1758 18.3695C52.7272 18.3695 53.3691 17.9424 53.3691 17.2624C53.3691 15.3107 43.8783 17.3256 43.8783 10.9489C43.8783 8.18115 46.3787 5.77246 50.8671 5.77246C53.6384 5.77246 55.9335 6.61859 57.6918 7.85377L55.7037 11.4075C54.7219 10.4918 52.8635 9.67729 50.9065 9.67729C49.6884 9.67729 48.879 10.1344 48.879 10.7527C48.879 12.4766 58.3321 10.6895 58.3321 17.1343C58.3321 20.1234 55.6002 22.2743 50.9377 22.2743C48.0007 22.2743 44.9947 21.3285 43.2676 19.834Z"/><path fill-rule="evenodd" clip-rule="evenodd" d="M70.3957 21.8856V12.7332C70.3957 10.8196 69.3499 10.2012 67.6885 10.2012C66.1699 10.2012 65.1569 11.0109 64.5528 11.7274V21.884H59.3452V0.175781H64.5528V8.0835C65.528 6.97642 67.4586 5.77444 70.1905 5.77444C73.9106 5.77444 75.5967 7.79249 75.5967 10.6899V21.8856H70.3957Z"/><path fill-rule="evenodd" clip-rule="evenodd" d="M87.3202 17.8507V16.4479C86.7801 15.6998 85.5635 15.3408 84.4143 15.3408C83.0615 15.3408 81.8105 15.9292 81.8105 17.1643C81.8105 18.3995 83.0615 18.9879 84.4143 18.9879C85.5635 18.9879 86.7801 18.5972 87.3202 17.8491V17.8507ZM87.3204 21.8836V20.3211C86.3058 21.4898 84.3439 22.2743 82.254 22.2743C79.752 22.2743 76.6426 20.6121 76.6426 17.0963C76.6426 13.2911 79.752 12.0243 82.254 12.0243C84.4145 12.0243 86.3386 12.7044 87.3204 13.8779V12.3153C87.3204 10.9489 86.1006 10.0047 84.0107 10.0047C82.3886 10.0047 80.765 10.6215 79.445 11.6969L77.5209 8.21278C79.6174 6.4889 82.4198 5.77246 84.9218 5.77246C88.839 5.77246 92.5197 7.17529 92.5197 12.0559V21.8852H87.3204V21.8836Z"/><path fill-rule="evenodd" clip-rule="evenodd" d="M102.518 17.851C104.577 17.851 106.135 16.3801 106.135 14.0078C106.135 11.6671 104.577 10.1963 102.518 10.1963C101.402 10.1963 100.056 10.783 99.4087 11.6292V16.4481C100.056 17.2943 101.403 17.851 102.518 17.851ZM94.2075 21.884V0.175781H99.4085V8.02024C100.567 6.58422 102.356 5.75318 104.243 5.77444C108.328 5.77444 111.439 8.86794 111.439 14.008C111.439 19.3457 108.264 22.2747 104.243 22.2747C102.416 22.2747 100.761 21.5582 99.4085 20.0621V21.8856H94.2075V21.884Z"/><path fill-rule="evenodd" clip-rule="evenodd" d="M112.485 0.175781H117.686V21.8856H112.485V0.175781Z"/><path fill-rule="evenodd" clip-rule="evenodd" d="M127.382 9.80664C125.116 9.80664 124.24 11.1098 124.033 12.247H130.761C130.621 11.1399 129.78 9.80664 127.382 9.80664ZM118.73 14.0076C118.73 9.45429 122.276 5.77246 127.382 5.77246C132.21 5.77246 135.725 9.18859 135.725 14.5263V15.6698H124.105C124.476 17.0663 125.829 18.2398 128.19 18.2398C129.339 18.2398 131.23 17.7511 132.179 16.9049L134.436 20.1914C132.819 21.5879 130.114 22.2743 127.618 22.2743C122.585 22.2743 118.73 19.1175 118.73 14.0076Z"/></symbol><symbol viewBox="0 0 81 30" id="nike" xmlns="http://www.w3.org/2000/svg"><path fill-rule="evenodd" clip-rule="evenodd" d="M8.89129 29.5053C6.49028 29.4086 4.52484 28.7425 2.98876 27.5054C2.6958 27.2691 1.99673 26.5606 1.76268 26.2617C1.13956 25.4677 0.714855 24.6949 0.432748 23.8376C-0.436821 21.1985 0.0111389 17.7353 1.71308 13.9346C3.17011 10.6806 5.41766 7.4533 9.3408 2.98358C9.91741 2.32586 11.6379 0.402344 11.6503 0.402344C11.6535 0.402344 11.5604 0.56698 11.4426 0.767458C10.4227 2.49883 9.55005 4.53823 9.07419 6.30378C8.31003 9.13676 8.40303 11.568 9.3439 13.4531C9.99336 14.7519 11.1063 15.8768 12.3587 16.4987C14.5505 17.5869 17.759 17.6769 21.676 16.7621C21.9457 16.6988 35.3132 13.1022 51.3824 8.76955C67.4516 4.43653 80.6005 0.894168 80.6021 0.89708C80.6067 0.900834 43.2711 17.0934 23.8879 25.494C20.8188 26.824 19.9988 27.1599 18.5558 27.6733C14.8667 28.9863 11.562 29.6128 8.89129 29.5053Z"/></symbol><symbol viewBox="0 0 24 24" id="search" xmlns="http://www.w3.org/2000/svg"><path d="M18.5 18.5L22 22M21 11.5C21 6.25329 16.7467 2 11.5 2C6.25329 2 2 6.25329 2 11.5C2 16.7467 6.25329 21 11.5 21C16.7467 21 21 16.7467 21 11.5Z" stroke-width="1.5" stroke-linecap="round" stroke-linejoin="round"/></symbol><symbol viewBox="0 0 24 24" id="search-line" xmlns="http://www.w3.org/2000/svg"><path d="M18.031 16.6168L22.3137 20.8995L20.8995 22.3137L16.6168 18.031C15.0769 19.263 13.124 20 11 20C6.032 20 2 15.968 2 11C2 6.032 6.032 2 11 2C15.968 2 20 6.032 20 11C20 13.124 19.263 15.0769 18.031 16.6168ZM16.0247 15.8748C17.2475 14.6146 18 12.8956 18 11C18 7.1325 14.8675 4 11 4C7.1325 4 4 7.1325 4 11C4 14.8675 7.1325 18 11 18C12.8956 18 14.6146 17.2475 15.8748 16.0247L16.0247 15.8748Z"/></symbol><symbol viewBox="0 0 79 34" id="stripe" xmlns="http://www.w3.org/2000/svg"><path fill-rule="evenodd" clip-rule="evenodd" d="M5.50294 13.4234C5.50294 12.5532 6.21002 12.2185 7.36287 12.2185C9.02297 12.2185 11.0981 12.7317 12.7582 13.6468V8.40251C10.9598 7.66615 9.16131 7.37604 7.36287 7.37604C2.93592 7.37604 0 9.74153 0 13.6914C0 19.8503 8.26978 18.8685 8.26978 21.5241C8.26978 22.5503 7.40898 22.8852 6.17928 22.8852C4.38083 22.8852 2.07513 22.1264 0.245941 21.1V26.411C2.25959 27.3037 4.30397 27.6829 6.17928 27.6829C10.7138 27.6829 13.8342 25.3846 13.8342 21.3901C13.8035 14.7402 5.50294 15.9228 5.50294 13.4234ZM20.2286 2.91309L14.9101 4.0734L14.8948 21.9479C14.8948 25.2507 17.3081 27.6829 20.5361 27.6829C22.3191 27.6829 23.6257 27.3482 24.3481 26.9466V22.4165C23.6564 22.7067 20.2133 23.7331 20.2133 20.4304V12.5086H24.3481V7.75546H20.2133L20.2286 2.91309ZM31.1116 9.40638L30.7735 7.75512H26.0698V27.2809H31.5113V14.048C32.7871 12.3298 34.9698 12.6422 35.6462 12.8876V7.75512C34.9545 7.48729 32.4028 6.99633 31.1116 9.40638ZM36.968 7.75488H42.4402V27.2806H36.968V7.75488ZM36.9681 6.05921L42.4403 4.85419V0.324219L36.9681 1.50696V6.05906V6.05921ZM53.8151 7.37604C51.6785 7.37604 50.295 8.40251 49.5418 9.11673L49.2498 7.73316H44.4693V33.7525L49.9108 32.5699L49.9261 26.2548C50.7101 26.8349 51.8629 27.6606 53.7843 27.6606C57.6886 27.6606 61.2394 24.4472 61.2394 17.3734C61.2087 10.9018 57.6272 7.37604 53.8151 7.37604ZM52.5084 22.7511C51.2172 22.7511 50.4486 22.2827 49.926 21.7024L49.9106 13.4233C50.4794 12.7763 51.2633 12.3301 52.5084 12.3301C54.4759 12.3301 55.8594 14.6061 55.8594 17.5294C55.8594 20.5197 54.5067 22.7511 52.5084 22.7511ZM78.3938 17.5964C78.3938 11.8837 75.6885 7.37604 70.5391 7.37604C65.3436 7.37604 62.2078 11.8839 62.2078 17.5519C62.2078 24.2687 65.9123 27.6606 71.2308 27.6606C73.8132 27.6606 75.7807 27.0581 77.2564 26.2101V21.747C75.7807 22.5058 74.0745 22.9746 71.9225 22.9746C69.8166 22.9746 67.9413 22.2157 67.6954 19.5825H78.3477C78.3477 19.2923 78.3938 18.1319 78.3938 17.5964ZM67.6338 15.4757C67.6338 12.9542 69.1402 11.9053 70.5082 11.9053C71.8455 11.9053 73.2597 12.9542 73.2597 15.4757H67.6338Z"/></symbol><symbol viewBox="0 0 24 19" id="telegram" xmlns="http://www.w3.org/2000/svg"><path d="M22.0523 0.70458L0.78948 8.0485C-0.0661758 8.3905 -0.355582 9.07537 0.582668 9.44707L6.03751 10.9997L19.2266 3.69906C19.9468 3.24074 20.684 3.36296 20.0496 3.86714L8.72194 13.0534L8.36612 16.941C8.6957 17.5413 9.29916 17.5441 9.6841 17.2457L12.8181 14.5897L18.1855 18.1896C19.4321 18.8506 20.1105 18.424 20.3787 17.2125L23.8992 2.28162C24.2648 0.790289 23.6414 0.133192 22.0523 0.70458Z"/></symbol><symbol viewBox="0 0 20 20" id="twitter" xmlns="http://www.w3.org/2000/svg"><path d="M16.6667 6.27604C16.1806 6.49306 15.6554 6.64062 15.0911 6.71875C15.6814 6.37153 16.0851 5.86372 16.3021 5.19531C15.7378 5.52517 15.1562 5.74653 14.5573 5.85938C14.0278 5.28646 13.3637 5 12.5651 5C11.8099 5 11.1654 5.26693 10.6315 5.80078C10.0977 6.33464 9.83073 6.97917 9.83073 7.73438C9.83073 7.98611 9.85243 8.19444 9.89583 8.35938C8.77604 8.29861 7.72569 8.01649 6.74479 7.51302C5.76389 7.00955 4.93056 6.33681 4.24479 5.49479C3.99306 5.92882 3.86719 6.38889 3.86719 6.875C3.86719 7.86458 4.26215 8.62413 5.05208 9.15365C4.6441 9.14497 4.21007 9.03212 3.75 8.8151V8.84115C3.75 9.49219 3.96701 10.0716 4.40104 10.5794C4.83507 11.0872 5.36892 11.4019 6.0026 11.5234C5.75087 11.5929 5.52951 11.6276 5.33854 11.6276C5.22569 11.6276 5.05642 11.6102 4.83073 11.5755C5.01302 12.1224 5.33637 12.5738 5.80078 12.9297C6.26519 13.2856 6.79253 13.4679 7.38281 13.4766C6.37587 14.2578 5.24306 14.6484 3.98438 14.6484C3.75868 14.6484 3.54167 14.6354 3.33333 14.6094C4.61806 15.4253 6.01562 15.8333 7.52604 15.8333C8.49826 15.8333 9.40972 15.6793 10.2604 15.3711C11.1111 15.0629 11.8403 14.6506 12.4479 14.1341C13.0556 13.6176 13.5786 13.023 14.0169 12.3503C14.4553 11.6775 14.7808 10.9744 14.9935 10.2409C15.2062 9.50738 15.3125 8.77604 15.3125 8.04688C15.3125 7.89062 15.3082 7.77344 15.2995 7.69531C15.8464 7.30469 16.3021 6.8316 16.6667 6.27604ZM20 3.75V16.25C20 17.283 19.6332 18.1662 18.8997 18.8997C18.1662 19.6332 17.283 20 16.25 20H3.75C2.71701 20 1.83377 19.6332 1.10026 18.8997C0.366753 18.1662 0 17.283 0 16.25V3.75C0 2.71701 0.366753 1.83377 1.10026 1.10026C1.83377 0.366753 2.71701 0 3.75 0H16.25C17.283 0 18.1662 0.366753 18.8997 1.10026C19.6332 1.83377 20 2.71701 20 3.75Z"/></symbol><symbol viewBox="0 0 106 23" id="uber" xmlns="http://www.w3.org/2000/svg"><path fill-rule="evenodd" clip-rule="evenodd" d="M16.6023 1.23431V13.0486C16.6023 16.9937 14.8079 18.632 10.5953 18.632C6.38417 18.632 4.58828 16.9937 4.58828 13.0486V0.716797H0.532403C0.17695 0.716797 0 0.889532 0 1.23431V13.2424C0 19.8399 4.32286 22.1466 10.5953 22.1466C16.8692 22.1466 21.1905 19.8399 21.1905 13.2424V0.716797H17.1347C16.7808 0.716797 16.6023 0.889532 16.6023 1.23431Z"/><path fill-rule="evenodd" clip-rule="evenodd" d="M75.4055 4.14478C75.7377 4.14478 75.8929 4.03713 76.0031 3.79966L77.1781 0.975371C77.2449 0.803345 77.1781 0.716797 77.0012 0.716797H60.6643C59.1354 0.716797 58.5596 1.16957 58.5596 2.18276V20.5294C58.5596 21.392 59.0019 21.78 60.177 21.78H75.4055C75.7377 21.78 75.8929 21.672 76.0031 21.4353L77.1781 18.6106C77.2449 18.4382 77.1781 18.352 77.0012 18.352H63.0594V14.6222C63.0594 13.3286 63.7905 12.7463 65.7618 12.7463H71.8138C72.1475 12.7463 72.3011 12.6391 72.4129 12.402L73.5429 9.68535C73.6096 9.51265 73.5429 9.42675 73.3659 9.42675H63.0594V4.14478H75.4055Z"/><path fill-rule="evenodd" clip-rule="evenodd" d="M42.3933 18.3959H34.3887V14.5366C34.3887 13.243 35.1198 12.6611 37.0941 12.6611H42.3933C44.942 12.6611 45.6514 13.6095 45.6514 15.5502C45.6514 17.4904 44.942 18.3959 42.3933 18.3959ZM34.3887 4.10156H41.5505C43.9455 4.10156 44.6099 4.97861 44.6099 6.79639C44.6099 8.61446 43.9455 9.49157 41.5505 9.49157H34.3887V4.10156ZM46.6496 10.677C48.4222 9.77155 49.1533 8.06851 49.1533 6.06354C49.1533 1.40668 45.2526 0.716797 41.2185 0.716797H31.9969C30.468 0.716797 29.8921 1.16957 29.8921 2.18276V20.5294C29.8921 21.392 30.3345 21.78 31.5095 21.78H42.8591C47.137 21.78 50.1963 20.1631 50.1963 15.959C50.1963 13.4367 49.0881 11.3022 46.6496 10.677Z"/><path fill-rule="evenodd" clip-rule="evenodd" d="M97.0308 10.4826H89.4949V4.10156H97.0308C99.8465 4.10156 100.467 5.15767 100.467 7.2921C100.467 9.44788 99.8465 10.4826 97.0308 10.4826ZM105.498 21.4134L100.644 13.3072C103.061 12.7038 105.011 11.1517 105.011 7.2062C105.011 2.09692 101.753 0.716797 96.3665 0.716797H87.1014C85.571 0.716797 84.9951 1.16957 84.9951 2.18276V21.2626C84.9951 21.6072 85.1721 21.78 85.5275 21.78H89.4949V15.6358C89.4949 14.3422 90.226 13.7599 92.1989 13.7599H96.1895L100.578 21.4353C100.711 21.6506 100.845 21.78 101.177 21.78H105.299C105.588 21.78 105.588 21.5425 105.498 21.4134Z"/></symbol><symbol viewBox="0 0 24 24" id="user" xmlns="http://www.w3.org/2000/svg"><path d="M18.5588 19.5488C17.5654 16.8918 15.0036 15 12 15C8.99638 15 6.4346 16.8918 5.44117 19.5488M18.5588 19.5488C20.6672 17.7154 22 15.0134 22 12C22 6.47715 17.5228 2 12 2C6.47715 2 2 6.47715 2 12C2 15.0134 3.33285 17.7154 5.44117 19.5488M18.5588 19.5488C16.8031 21.0756 14.5095 22 12 22C9.49052 22 7.19694 21.0756 5.44117 19.5488M15 9C15 10.6569 13.6569 12 12 12C10.3431 12 9 10.6569 9 9C9 7.34315 10.3431 6 12 6C13.6569 6 15 7.34315 15 9Z" stroke-width="1.5" stroke-linejoin="round"/></symbol><symbol viewBox="0 0 24 24" id="user-star-line" xmlns="http://www.w3.org/2000/svg"><path d="M12 14V16C8.68629 16 6 18.6863 6 22H4C4 17.5817 7.58172 14 12 14ZM12 13C8.685 13 6 10.315 6 7C6 3.685 8.685 1 12 1C15.315 1 18 3.685 18 7C18 10.315 15.315 13 12 13ZM12 11C14.21 11 16 9.21 16 7C16 4.79 14.21 3 12 3C9.79 3 8 4.79 8 7C8 9.21 9.79 11 12 11ZM18 21.5L15.0611 23.0451L15.6224 19.7725L13.2447 17.4549L16.5305 16.9775L18 14L19.4695 16.9775L22.7553 17.4549L20.3776 19.7725L20.9389 23.0451L18 21.5Z"/></symbol><symbol id="website" enable-background="new 0 0 497 497" viewBox="0 0 497 497" xmlns="http://www.w3.org/2000/svg"><g><path d="m497 128.5v312c0 11.046-8.954 20-20 20h-457c-11.046 0-20-8.954-20-20v-312z"/><g><path d="m290.498 294.5c0-23.196-18.804-42-42-42-7.031 0-13.659 1.728-19.482 4.782-13.386 7.021-19.327 21.053-19.327 37.218 0 23.196 15.613 36.457 38.809 36.457 16.214 0 30.282-3.645 37.282-17.099 3.014-5.792 4.718-12.376 4.718-19.358z"/><path d="m286.468 312.47c-6.73 14.21-21.2 24.03-37.97 24.03-23.2 0-42-18.8-42-42 0-16.77 9.82-31.24 24.03-37.97-2.59 5.45-4.03 11.54-4.03 17.97 0 23.2 18.8 42 42 42 6.43 0 12.52-1.44 17.97-4.03z"/></g><g><path d="m429.496 294.5c0-23.196-18.804-42-42-42-7.031 0-13.659 1.728-19.482 4.782-13.386 7.021-19.327 21.053-19.327 37.218 0 23.196 15.613 36.457 38.809 36.457 16.214 0 30.282-3.645 37.282-17.099 3.014-5.792 4.718-12.376 4.718-19.358z"/><path d="m425.466 312.47c-6.73 14.21-21.2 24.03-37.97 24.03-23.2 0-42-18.8-42-42 0-16.77 9.82-31.24 24.03-37.97-2.59 5.45-4.03 11.54-4.03 17.97 0 23.2 18.8 42 42 42 6.43 0 12.52-1.44 17.97-4.03z"/></g><path d="m497 148.5v-20l-276.011-12.798-220.989 12.798v20 292c0 11.046 8.954 20 20 20h15c-8.28 0-15-6.72-15-15v-291c0-3.314 2.686-6 6-6z"/><g><path d="m497 56.5v72.5h-497v-72.5c0-11.046 8.954-20 20-20h457c11.046 0 20 8.954 20 20z"/><g><path d="m227.758 108.5c-8.255 0-14.947-6.716-14.947-15s6.692-15 14.947-15h208.315c8.255 0 14.947 6.716 14.947 15s-6.692 15-14.947 15z"/><ellipse cx="160.869" cy="93.5" rx="14.947" ry="15"/><path d="m171.361 104.184 12.874-12.869-13.139 1.179z"/><path d="m150.592 82.608 12.562-12.516-2.693 10.408z"/><ellipse cx="98.034" cy="93.5" rx="14.947" ry="15"/><path d="m108.553 104.157 12.382-12.499-12.674.836z"/><path d="m87.757 82.608 12.371-12.459-2.502 10.351z"/><ellipse cx="32.947" cy="93.5" rx="14.947" ry="15"/><path d="m43.769 103.846 12.721-13.186-13.139 1.381z"/><path d="m22.67 82.608 11.622-12.038-1.753 9.93z"/></g><ellipse cx="173.849" cy="80.5" rx="14.947" ry="15"/><path d="m217.514 82.577 12.971-12.991-3.025 14.276z"/><path d="m446.83 103.915 13.149-13.179-10.185 3.381z"/><ellipse cx="110.946" cy="80.5" rx="14.947" ry="15"/><ellipse cx="45.495" cy="80.5" rx="14.947" ry="15"/><path d="m240.737 95.5c-8.255 0-14.947-6.716-14.947-15s6.692-15 14.947-15h208.315c8.255 0 14.947 6.716 14.947 15s-6.692 15-14.947 15z"/></g><path d="m135.893 215 226.628 2c5.523 0 10-4.477 10-10l3.479-7v-30c0-5.523-4.477-10-10-10h-224l-6.107 5c-5.523 0-10 4.477-10 10v30c0 5.523 4.477 10 10 10z"/><path d="m376 200v10c0 5.523-4.477 10-10 10h-234c-5.523 0-10-4.477-10-10v-40c0-5.523 4.477-10 10-10h10v33c0 3.866 3.134 7 7 7z"/><g><path d="m151.5 294.5c0-23.196-18.804-42-42-42-7.031 0-13.659 1.728-19.482 4.782-13.386 7.021-19.327 21.053-19.327 37.218 0 23.196 15.613 36.457 38.809 36.457 16.214 0 30.282-3.645 37.282-17.099 3.014-5.792 4.718-12.376 4.718-19.358z"/><path d="m147.47 312.47c-6.73 14.21-21.2 24.03-37.97 24.03-23.2 0-42-18.8-42-42 0-16.77 9.82-31.24 24.03-37.97-2.59 5.45-4.03 11.54-4.03 17.97 0 23.2 18.8 42 42 42 6.43 0 12.52-1.44 17.97-4.03z"/></g><g><g><path d="m149.5 374h-70c-4.142 0-7.5-3.358-7.5-7.5s3.358-7.5 7.5-7.5h70c4.142 0 7.5 3.358 7.5 7.5s-3.358 7.5-7.5 7.5z"/></g><g><path d="m149.5 404h-80c-4.142 0-7.5-3.358-7.5-7.5s3.358-7.5 7.5-7.5h80c4.142 0 7.5 3.358 7.5 7.5s-3.358 7.5-7.5 7.5z"/></g><g><path d="m149.5 434h-80c-4.142 0-7.5-3.358-7.5-7.5s3.358-7.5 7.5-7.5h80c4.142 0 7.5 3.358 7.5 7.5s-3.358 7.5-7.5 7.5z"/></g></g><g><g><path d="m288.5 374h-70c-4.142 0-7.5-3.358-7.5-7.5s3.358-7.5 7.5-7.5h70c4.143 0 7.5 3.358 7.5 7.5s-3.357 7.5-7.5 7.5z"/></g><g><path d="m288.5 404h-80c-4.142 0-7.5-3.358-7.5-7.5s3.358-7.5 7.5-7.5h80c4.143 0 7.5 3.358 7.5 7.5s-3.357 7.5-7.5 7.5z"/></g><g><path d="m288.5 434h-80c-4.142 0-7.5-3.358-7.5-7.5s3.358-7.5 7.5-7.5h80c4.143 0 7.5 3.358 7.5 7.5s-3.357 7.5-7.5 7.5z"/></g></g><g><g><path d="m427.5 374h-70c-4.143 0-7.5-3.358-7.5-7.5s3.357-7.5 7.5-7.5h70c4.143 0 7.5 3.358 7.5 7.5s-3.357 7.5-7.5 7.5z"/></g><g><path d="m427.5 404h-80c-4.143 0-7.5-3.358-7.5-7.5s3.357-7.5 7.5-7.5h80c4.143 0 7.5 3.358 7.5 7.5s-3.357 7.5-7.5 7.5z"/></g><g><path d="m427.5 434h-80c-4.143 0-7.5-3.358-7.5-7.5s3.357-7.5 7.5-7.5h80c4.143 0 7.5 3.358 7.5 7.5s-3.357 7.5-7.5 7.5z"/></g></g></g></symbol></svg>