<?xml version="1.0" encoding="utf-8"?><svg viewBox="0 0 512 512" xmlns="http://www.w3.org/2000/svg" xmlns:xlink="http://www.w3.org/1999/xlink"><style>:root>svg{display:none}:root>svg:target{display:block}</style><svg fill="none" viewBox="0 0 137 37" id="airbnb" xmlns="http://www.w3.org/2000/svg"><path fill-rule="evenodd" clip-rule="evenodd" d="M70.591 7.499c0 1.515-1.27 2.736-2.847 2.736s-2.847-1.22-2.847-2.736c0-1.515 1.226-2.736 2.847-2.736 1.62.042 2.847 1.263 2.847 2.736Zm-11.74 5.515v.674s-1.357-1.684-4.249-1.684c-4.774 0-8.498 3.494-8.498 8.335 0 4.8 3.68 8.335 8.498 8.335 2.935 0 4.25-1.726 4.25-1.726v.716c0 .337.262.59.613.59h3.548v-15.83h-3.548a.614.614 0 0 0-.614.59Zm0 10.146c-.657.926-1.97 1.726-3.548 1.726-2.803 0-4.95-1.684-4.95-4.547 0-2.862 2.147-4.546 4.95-4.546 1.533 0 2.935.842 3.548 1.726v5.64Zm6.79-10.735h4.206v15.828H65.64V12.425Zm62.817-.42c-2.891 0-4.249 1.683-4.249 1.683V4.806h-4.205v23.448h3.548a.615.615 0 0 0 .614-.59v-.715s1.357 1.725 4.249 1.725c4.774 0 8.498-3.536 8.498-8.335 0-4.799-3.724-8.335-8.455-8.335Zm-.7 12.838c-1.621 0-2.891-.8-3.549-1.726v-5.641c.658-.842 2.059-1.726 3.549-1.726 2.803 0 4.95 1.684 4.95 4.547 0 2.862-2.147 4.546-4.95 4.546Zm-9.944-5.977v9.43h-4.206v-8.967c0-2.61-.876-3.663-3.241-3.663-1.271 0-2.585.632-3.417 1.558v11.03h-4.205v-15.83h3.329c.35 0 .613.296.613.59v.674c1.227-1.221 2.847-1.684 4.468-1.684 1.84 0 3.373.505 4.6 1.515 1.489 1.18 2.059 2.695 2.059 5.347Zm-25.276-6.862c-2.891 0-4.25 1.684-4.25 1.684V4.806h-4.204v23.448h3.548c.35 0 .613-.295.613-.59v-.715s1.358 1.725 4.25 1.725c4.774 0 8.497-3.536 8.497-8.335.044-4.799-3.68-8.335-8.454-8.335Zm-.7 12.839c-1.621 0-2.892-.8-3.549-1.726v-5.641c.657-.842 2.059-1.726 3.548-1.726 2.804 0 4.95 1.684 4.95 4.547 0 2.862-2.146 4.546-4.95 4.546Zm-11.39-12.84c1.27 0 1.927.211 1.927.211v3.747s-3.504-1.137-5.695 1.263v11.071h-4.205v-15.87h3.548c.35 0 .614.295.614.59v.673c.788-.884 2.496-1.684 3.81-1.684ZM34.833 26.226c-.19-.44-.38-.918-.57-1.321-.305-.661-.61-1.285-.876-1.872l-.038-.037a377.317 377.317 0 0 0-8.413-16.588l-.114-.22c-.305-.55-.61-1.138-.914-1.725-.38-.66-.761-1.358-1.37-2.019A6.234 6.234 0 0 0 17.704.168c-1.904 0-3.617.807-4.873 2.202-.57.66-.99 1.358-1.37 2.018-.305.588-.61 1.175-.914 1.725l-.114.22c-2.93 5.505-5.786 11.084-8.412 16.589l-.038.073c-.267.587-.571 1.211-.876 1.872-.19.404-.38.844-.57 1.321-.496 1.358-.648 2.643-.458 3.964.419 2.752 2.322 5.064 4.949 6.092a8.07 8.07 0 0 0 3.083.587c.305 0 .685-.037.99-.073 1.256-.147 2.55-.55 3.806-1.248 1.561-.844 3.046-2.055 4.72-3.817 1.675 1.762 3.198 2.973 4.72 3.817a10.313 10.313 0 0 0 3.807 1.248c.305.036.685.073.99.073 1.066 0 2.132-.183 3.083-.587 2.665-1.028 4.53-3.377 4.949-6.092.304-1.285.152-2.57-.343-3.927Zm-17.132 1.522c-1.975-2.422-3.254-4.701-3.693-6.625-.183-.82-.22-1.532-.11-2.173a3.4 3.4 0 0 1 .585-1.496c.695-.962 1.865-1.567 3.218-1.567s2.56.57 3.218 1.567c.292.428.511.926.585 1.496.11.641.073 1.39-.11 2.173-.439 1.888-1.719 4.167-3.693 6.625Zm14.84 1.845c-.26 1.865-1.563 3.479-3.387 4.196-.893.359-1.86.466-2.828.359-.93-.108-1.86-.395-2.829-.933-1.34-.717-2.68-1.829-4.242-3.479 2.456-2.904 3.945-5.558 4.503-7.925a8.667 8.667 0 0 0 .186-3.048 5.701 5.701 0 0 0-1.005-2.439c-1.153-1.614-3.089-2.546-5.247-2.546-2.159 0-4.094.968-5.248 2.546a5.7 5.7 0 0 0-1.005 2.439 7.186 7.186 0 0 0 .187 3.048c.558 2.367 2.084 5.056 4.503 7.961-1.526 1.65-2.903 2.762-4.243 3.479-.968.538-1.898.825-2.828.932a6.163 6.163 0 0 1-2.829-.358c-1.823-.717-3.126-2.331-3.387-4.196a5.735 5.735 0 0 1 .335-2.797c.112-.359.298-.718.484-1.148.26-.574.558-1.183.856-1.793l.037-.072a386.269 386.269 0 0 1 8.188-16.102l.112-.215c.297-.538.595-1.112.893-1.65.298-.574.633-1.112 1.042-1.578a3.953 3.953 0 0 1 2.977-1.327c1.154 0 2.196.467 2.978 1.327.409.466.744 1.004 1.042 1.578.297.538.595 1.112.893 1.65l.111.215a468.377 468.377 0 0 1 8.15 16.138v.036c.298.574.559 1.22.857 1.793.186.43.372.789.484 1.148.297.932.409 1.829.26 2.761Z" fill="#A2AECF"/></svg><svg fill="none" viewBox="0 0 166 125" id="discord" xmlns="http://www.w3.org/2000/svg"><path d="M140.525 10.367A137.89 137.89 0 0 0 106.738.02a.518.518 0 0 0-.546.25c-1.453 2.563-3.071 5.903-4.205 8.542a127.91 127.91 0 0 0-37.951 0A85.954 85.954 0 0 0 59.769.27a.533.533 0 0 0-.547-.263A137.79 137.79 0 0 0 25.435 10.36a.485.485 0 0 0-.221.188C3.69 42.316-2.21 73.3.688 103.896a.558.558 0 0 0 .214.382 138.345 138.345 0 0 0 41.45 20.693.54.54 0 0 0 .58-.181 96.114 96.114 0 0 0 8.481-13.631.517.517 0 0 0-.283-.722 91.112 91.112 0 0 1-12.948-6.097.516.516 0 0 1-.26-.419.52.52 0 0 1 .205-.449 74.26 74.26 0 0 0 2.573-1.993.52.52 0 0 1 .54-.069c27.16 12.249 56.576 12.249 83.419 0a.517.517 0 0 1 .546.062c.83.681 1.695 1.354 2.573 2a.523.523 0 0 1-.041.868 85.233 85.233 0 0 1-12.955 6.09.515.515 0 0 0-.306.3.519.519 0 0 0 .023.429c2.489 4.771 5.339 9.312 8.472 13.624a.531.531 0 0 0 .581.195 137.878 137.878 0 0 0 41.513-20.7.538.538 0 0 0 .221-.375c3.458-35.373-5.796-66.107-24.546-93.342a.415.415 0 0 0-.215-.194ZM55.473 85.265c-8.175 0-14.918-7.423-14.918-16.527 0-9.11 6.612-16.526 14.918-16.526 8.37 0 15.05 7.478 14.92 16.526 0 9.11-6.613 16.527-14.92 16.527Zm55.159 0c-8.182 0-14.919-7.423-14.919-16.527 0-9.11 6.606-16.526 14.919-16.526 8.369 0 15.05 7.478 14.919 16.526 0 9.11-6.543 16.527-14.919 16.527Z" fill="#fff"/></svg><svg fill="none" viewBox="0 0 20 20" id="facebook" xmlns="http://www.w3.org/2000/svg"><path d="M3.652 0A3.644 3.644 0 0 0 0 3.652v12.696A3.644 3.644 0 0 0 3.652 20h6.881v-7.819H8.466V9.366h2.067V6.961c0-1.89 1.222-3.624 4.036-3.624 1.14 0 1.982.11 1.982.11l-.067 2.628s-.859-.008-1.797-.008c-1.014 0-1.177.467-1.177 1.244v2.055h3.055l-.133 2.815H13.51V20h2.838A3.644 3.644 0 0 0 20 16.348V3.652A3.644 3.644 0 0 0 16.348 0H3.652Z" fill="#BDC4C9"/></svg><svg fill="none" viewBox="0 0 94 31" id="google" xmlns="http://www.w3.org/2000/svg"><path fill-rule="evenodd" clip-rule="evenodd" d="M12.158 11.128v3.2l7.828-.003c-.24 1.766-.85 3.059-1.776 3.963-1.141 1.116-2.923 2.344-6.052 2.344-4.824 0-8.598-3.8-8.598-8.514 0-4.715 3.774-8.515 8.598-8.515 2.603 0 4.503 1 5.906 2.286l2.311-2.258C18.42 1.804 15.816.402 12.161.402 5.556.402 0 5.662 0 12.118c0 6.456 5.556 11.715 12.16 11.715 3.566 0 6.256-1.143 8.361-3.286 2.165-2.116 2.837-5.086 2.837-7.487 0-.715-.055-1.374-.163-1.932H12.158Zm66.031 12.245V1.264h-3.306v22.11h3.306Zm-45.77.463c4.266 0 7.743-3.201 7.743-7.545 0-4.375-3.477-7.545-7.743-7.545-4.268 0-7.745 3.17-7.745 7.545 0 4.344 3.477 7.545 7.745 7.545Zm0-12.116c2.338 0 4.354 1.857 4.354 4.572 0 2.684-2.016 4.571-4.354 4.571-2.339 0-4.354-1.884-4.354-4.571 0-2.715 2.015-4.572 4.354-4.572Zm16.707 12.116c4.266 0 7.744-3.201 7.744-7.545 0-4.375-3.478-7.545-7.744-7.545-4.268 0-7.745 3.174-7.745 7.545 0 4.344 3.477 7.545 7.745 7.545Zm0-12.116c2.339 0 4.354 1.857 4.354 4.572 0 2.684-2.015 4.571-4.354 4.571-2.338 0-4.354-1.884-4.354-4.571 0-2.715 2.016-4.572 4.354-4.572Zm23.755-2.515v13.542c0 5.572-3.363 7.848-7.337 7.848-3.742 0-5.994-2.446-6.844-4.446l2.951-1.2c.526 1.227 1.814 2.676 3.888 2.676 2.545 0 4.122-1.534 4.122-4.422v-1.085h-.118c-.759.915-2.22 1.715-4.065 1.715-3.86 0-7.398-3.287-7.398-7.515 0-4.259 3.538-7.572 7.398-7.572 1.84 0 3.303.8 4.065 1.687h.118V9.205h3.22Zm-2.98 7.114c0-2.657-1.814-4.6-4.122-4.6-2.338 0-4.297 1.943-4.297 4.6 0 2.63 1.959 4.544 4.297 4.544 2.308 0 4.122-1.915 4.122-4.544Zm21.174 2.456 2.63 1.714c-.849 1.228-2.895 3.344-6.432 3.344-4.385 0-7.66-3.313-7.66-7.545 0-4.487 3.303-7.545 7.281-7.545 4.007 0 5.965 3.116 6.607 4.8l.35.857-10.32 4.177c.79 1.514 2.019 2.286 3.742 2.286 1.726 0 2.925-.83 3.802-2.088Zm-8.1-2.715 6.898-2.8c-.378-.941-1.52-1.598-2.865-1.598a4.182 4.182 0 0 0-4.034 4.398Z" fill="#A2AECF"/></svg><svg fill="none" viewBox="0 0 24 25" id="heart" xmlns="http://www.w3.org/2000/svg"><path fill-rule="evenodd" clip-rule="evenodd" d="M12.692 7.584a1 1 0 0 1-1.384 0l-.693-.665A4.5 4.5 0 0 0 3 10.166c0 2.383 1.29 4.35 3.152 5.967 1.863 1.618 4.091 2.691 5.423 3.239.278.114.572.114.85 0 1.332-.548 3.56-1.62 5.423-3.239C19.71 14.517 21 12.55 21 10.167a4.5 4.5 0 0 0-7.615-3.248l-.693.665ZM12 5.476a6.5 6.5 0 0 0-11 4.69c0 6.369 6.97 9.886 9.814 11.055a3.096 3.096 0 0 0 2.372 0C16.03 20.051 23 16.535 23 10.167a6.5 6.5 0 0 0-11-4.69Z" fill="#141718"/></svg><svg fill="none" viewBox="0 0 24 24" id="heart-line" xmlns="http://www.w3.org/2000/svg"><path d="M12.001 4.529a5.998 5.998 0 0 1 8.242.228 6 6 0 0 1 .236 8.236l-8.48 8.492-8.478-8.492a6 6 0 0 1 8.48-8.464Zm6.826 1.641a3.998 3.998 0 0 0-5.49-.153l-1.335 1.198-1.336-1.197a4 4 0 0 0-5.686 5.605L12 18.654l7.02-7.03a4 4 0 0 0-.193-5.454Z" fill="#000"/></svg><svg fill="none" viewBox="0 0 24 24" id="id-card-line" xmlns="http://www.w3.org/2000/svg"><path d="M3 6h18v12H3V6ZM2 4a1 1 0 0 0-1 1v14a1 1 0 0 0 1 1h20a1 1 0 0 0 1-1V5a1 1 0 0 0-1-1H2Zm11 4h6v2h-6V8Zm5 4h-5v2h5v-2Zm-7.5-2a2.5 2.5 0 1 1-5 0 2.5 2.5 0 0 1 5 0ZM8 13.5A3.5 3.5 0 0 0 4.5 17h7A3.5 3.5 0 0 0 8 13.5Z" fill="#000"/></svg><svg fill="none" viewBox="0 0 20 20" id="instagram" xmlns="http://www.w3.org/2000/svg"><path d="M19.936 5.903a7.23 7.23 0 0 0-.466-2.457 5.11 5.11 0 0 0-2.924-2.92 7.348 7.348 0 0 0-2.428-.465C13.05.013 12.711 0 9.998 0 7.288 0 6.94 0 5.879.061c-.829.017-1.65.175-2.426.466a5.117 5.117 0 0 0-2.924 2.92 7.256 7.256 0 0 0-.466 2.422C.014 6.936 0 7.275 0 9.982c0 2.708 0 3.054.062 4.114.017.83.173 1.647.466 2.425a5.11 5.11 0 0 0 2.925 2.918 7.323 7.323 0 0 0 2.427.499C6.95 19.986 7.288 20 10 20s3.06 0 4.12-.062a7.328 7.328 0 0 0 2.428-.465 5.124 5.124 0 0 0 2.925-2.92 7.292 7.292 0 0 0 .465-2.424c.048-1.067.062-1.405.062-4.114-.002-2.707-.002-3.05-.064-4.112Zm-9.944 9.2a5.129 5.129 0 0 1-5.134-5.126A5.129 5.129 0 0 1 9.992 4.85c1.362 0 2.668.54 3.63 1.501a5.121 5.121 0 0 1 0 7.25 5.139 5.139 0 0 1-3.63 1.5Zm5.339-9.246a1.198 1.198 0 0 1-1.197-1.196 1.194 1.194 0 0 1 1.196-1.194 1.198 1.198 0 0 1 1.197 1.194c0 .661-.535 1.196-1.196 1.196Z" fill="#BDC4C9"/><path d="M9.993 13.306a3.332 3.332 0 0 0 3.335-3.33 3.332 3.332 0 0 0-3.335-3.33 3.332 3.332 0 0 0-3.336 3.33 3.332 3.332 0 0 0 3.336 3.33Z" fill="#BDC4C9"/></svg><svg fill="none" viewBox="0 0 136 23" id="mashable" xmlns="http://www.w3.org/2000/svg"><path fill-rule="evenodd" clip-rule="evenodd" d="M17.494.176 12.8 12.154 8.076.176H0v21.71h5.812V7.533l5.706 14.353h2.565l5.675-14.353v14.353h5.812V.176h-8.076ZM37.356 17.85v-1.402c-.539-.748-1.757-1.107-2.9-1.107-1.352 0-2.603.588-2.603 1.823 0 1.236 1.25 1.824 2.604 1.824 1.142 0 2.36-.39 2.899-1.139v.002Zm0 4.034V20.32c-1.013 1.169-2.97 1.953-5.067 1.953-2.5 0-5.604-1.662-5.604-5.178 0-3.805 3.102-5.072 5.604-5.072 2.167 0 4.092.68 5.067 1.854v-1.563c0-1.366-1.212-2.31-3.31-2.31-1.622 0-3.244.616-4.559 1.692l-1.924-3.484c2.096-1.724 4.899-2.44 7.394-2.44 3.92 0 7.606 1.402 7.606 6.283v9.83h-5.207v-.002ZM43.268 19.834l2.162-3.578c1.218 1.038 3.815 2.113 5.746 2.113 1.551 0 2.193-.427 2.193-1.107 0-1.951-9.49.064-9.49-6.313 0-2.768 2.5-5.177 6.988-5.177 2.771 0 5.067.847 6.825 2.082l-1.988 3.554c-.982-.916-2.84-1.73-4.797-1.73-1.219 0-2.028.456-2.028 1.075 0 1.724 9.453-.063 9.453 6.381 0 2.99-2.732 5.14-7.394 5.14-2.937 0-5.943-.946-7.67-2.44ZM70.396 21.886v-9.153c0-1.913-1.046-2.532-2.707-2.532-1.52 0-2.532.81-3.136 1.526v10.157h-5.208V.176h5.208v7.908c.975-1.108 2.906-2.31 5.638-2.31 3.72 0 5.406 2.018 5.406 4.916v11.196h-5.201ZM87.32 17.85v-1.402c-.54-.748-1.756-1.107-2.906-1.107-1.353 0-2.603.588-2.603 1.823 0 1.235 1.25 1.824 2.603 1.824 1.15 0 2.366-.39 2.906-1.139v.002Zm0 4.034V20.32c-1.014 1.169-2.976 1.953-5.066 1.953-2.502 0-5.611-1.662-5.611-5.178 0-3.805 3.109-5.072 5.611-5.072 2.16 0 4.085.68 5.066 1.854v-1.563c0-1.366-1.22-2.31-3.31-2.31-1.621 0-3.245.616-4.565 1.692l-1.924-3.484c2.096-1.724 4.899-2.44 7.4-2.44 3.918 0 7.599 1.402 7.599 6.283v9.83h-5.2v-.002ZM102.518 17.851c2.059 0 3.617-1.47 3.617-3.843 0-2.34-1.558-3.812-3.617-3.812-1.116 0-2.462.587-3.11 1.433v4.82c.648.845 1.995 1.402 3.11 1.402Zm-8.31 4.033V.176h5.2V8.02c1.159-1.436 2.948-2.267 4.835-2.246 4.085 0 7.196 3.094 7.196 8.234 0 5.338-3.175 8.267-7.196 8.267-1.827 0-3.482-.717-4.834-2.213v1.824h-5.202v-.002ZM112.485.176h5.201v21.71h-5.201V.176ZM127.382 9.807c-2.266 0-3.142 1.303-3.349 2.44h6.728c-.14-1.107-.981-2.44-3.379-2.44Zm-8.652 4.2c0-4.553 3.546-8.235 8.652-8.235 4.828 0 8.343 3.417 8.343 8.754v1.144h-11.62c.371 1.396 1.724 2.57 4.085 2.57 1.149 0 3.04-.489 3.989-1.335l2.257 3.286c-1.617 1.397-4.322 2.083-6.818 2.083-5.033 0-8.888-3.157-8.888-8.266Z" fill="#A2AECF"/></svg><svg fill="none" viewBox="0 0 81 30" id="nike" xmlns="http://www.w3.org/2000/svg"><path fill-rule="evenodd" clip-rule="evenodd" d="M8.891 29.505c-2.4-.096-4.366-.762-5.902-2a11.852 11.852 0 0 1-1.226-1.243c-.623-.794-1.048-1.567-1.33-2.424-.87-2.64-.422-6.103 1.28-9.903C3.17 10.68 5.418 7.453 9.341 2.984c.576-.658 2.297-2.582 2.31-2.582.002 0-.09.165-.208.365C10.423 2.5 9.55 4.538 9.074 6.304c-.764 2.833-.671 5.264.27 7.15.65 1.298 1.762 2.423 3.015 3.045 2.191 1.088 5.4 1.178 9.317.263.27-.063 13.637-3.66 29.706-7.992C67.452 4.437 80.6.894 80.602.897c.005.004-37.33 16.196-56.714 24.597-3.07 1.33-3.89 1.666-5.332 2.18-3.69 1.312-6.994 1.939-9.665 1.831Z" fill="#A2AECF"/></svg><svg fill="none" viewBox="0 0 24 24" id="search" xmlns="http://www.w3.org/2000/svg"><path d="M18.5 18.5 22 22m-1-10.5a9.5 9.5 0 1 0-19 0 9.5 9.5 0 0 0 19 0Z" stroke="#141718" stroke-width="1.5" stroke-linecap="round" stroke-linejoin="round"/></svg><svg fill="none" viewBox="0 0 24 24" id="search-line" xmlns="http://www.w3.org/2000/svg"><path d="m18.031 16.617 4.283 4.282-1.415 1.415-4.282-4.283A8.96 8.96 0 0 1 11 20c-4.968 0-9-4.032-9-9s4.032-9 9-9 9 4.032 9 9a8.96 8.96 0 0 1-1.969 5.617Zm-2.006-.742A6.977 6.977 0 0 0 18 11c0-3.867-3.133-7-7-7s-7 3.133-7 7 3.133 7 7 7a6.977 6.977 0 0 0 4.875-1.975l.15-.15Z" fill="#000"/></svg><svg fill="none" viewBox="0 0 79 34" id="stripe" xmlns="http://www.w3.org/2000/svg"><path fill-rule="evenodd" clip-rule="evenodd" d="M5.503 13.423c0-.87.707-1.204 1.86-1.204 1.66 0 3.735.513 5.395 1.428V8.403c-1.798-.737-3.597-1.027-5.395-1.027C2.936 7.376 0 9.742 0 13.691c0 6.16 8.27 5.178 8.27 7.833 0 1.026-.861 1.361-2.09 1.361-1.8 0-4.105-.759-5.934-1.785v5.311a14.68 14.68 0 0 0 5.933 1.272c4.535 0 7.655-2.298 7.655-6.293-.03-6.65-8.331-5.467-8.331-7.967Zm14.726-10.51-5.319 1.16-.015 17.875c0 3.303 2.413 5.735 5.641 5.735 1.783 0 3.09-.335 3.812-.736v-4.53c-.692.29-4.135 1.316-4.135-1.987V12.51h4.135V7.755h-4.135l.016-4.842Zm10.883 6.493-.338-1.65H26.07V27.28h5.441V14.048c1.276-1.718 3.459-1.406 4.135-1.16V7.755c-.691-.268-3.243-.759-4.534 1.651Zm5.856-1.651h5.472V27.28h-5.472V7.755Zm0-1.696 5.472-1.205V.324l-5.472 1.183v4.552Zm16.847 1.317c-2.136 0-3.52 1.027-4.273 1.74l-.292-1.383h-4.78v26.02l5.44-1.183.016-6.315c.784.58 1.937 1.406 3.858 1.406 3.905 0 7.455-3.214 7.455-10.288-.03-6.471-3.612-9.997-7.424-9.997Zm-1.307 15.375c-1.29 0-2.06-.468-2.582-1.049l-.015-8.279c.568-.647 1.352-1.093 2.597-1.093 1.968 0 3.351 2.276 3.351 5.2 0 2.99-1.352 5.221-3.35 5.221Zm25.886-5.155c0-5.712-2.706-10.22-7.855-10.22-5.195 0-8.331 4.508-8.331 10.176 0 6.717 3.704 10.109 9.023 10.109 2.582 0 4.55-.603 6.025-1.45v-4.464c-1.475.759-3.181 1.228-5.334 1.228-2.105 0-3.98-.76-4.227-3.393h10.653c0-.29.046-1.45.046-1.986Zm-10.76-2.12c0-2.522 1.506-3.57 2.874-3.57 1.338 0 2.752 1.048 2.752 3.57h-5.626Z" fill="#A2AECF"/></svg><svg fill="none" viewBox="0 0 24 19" id="telegram" xmlns="http://www.w3.org/2000/svg"><path d="M22.052.705.79 8.049C-.066 8.39-.356 9.075.583 9.447L6.038 11l13.189-7.3c.72-.46 1.457-.337.823.167L8.722 13.053l-.356 3.888c.33.6.933.603 1.318.305l3.134-2.656 5.368 3.6c1.246.66 1.924.234 2.193-.978l3.52-14.93C24.265.79 23.641.133 22.052.705Z" fill="#fff"/></svg><svg fill="none" viewBox="0 0 20 20" id="twitter" xmlns="http://www.w3.org/2000/svg"><path d="M16.667 6.276a5.793 5.793 0 0 1-1.576.443c.59-.347.994-.855 1.211-1.524a5.44 5.44 0 0 1-1.745.664C14.027 5.286 13.364 5 12.565 5c-.755 0-1.4.267-1.933.8a2.635 2.635 0 0 0-.801 1.934c0 .252.021.46.065.625a7.741 7.741 0 0 1-3.151-.846 7.751 7.751 0 0 1-2.5-2.018 2.708 2.708 0 0 0-.378 1.38c0 .99.395 1.75 1.185 2.279-.408-.009-.842-.122-1.302-.339v.026a2.6 2.6 0 0 0 .651 1.738c.434.508.968.823 1.602.944-.252.07-.473.105-.664.105-.113 0-.283-.018-.508-.053.182.547.505.999.97 1.355.464.356.992.538 1.582.547a5.403 5.403 0 0 1-3.399 1.171c-.225 0-.442-.013-.65-.039a7.671 7.671 0 0 0 4.192 1.224c.972 0 1.884-.154 2.734-.462.851-.308 1.58-.72 2.188-1.237a8.21 8.21 0 0 0 1.569-1.784 7.862 7.862 0 0 0 1.296-4.303c0-.156-.005-.274-.014-.352a5.314 5.314 0 0 0 1.368-1.419ZM20 3.75v12.5c0 1.033-.367 1.916-1.1 2.65-.734.733-1.617 1.1-2.65 1.1H3.75c-1.033 0-1.916-.367-2.65-1.1-.733-.734-1.1-1.617-1.1-2.65V3.75C0 2.717.367 1.834 1.1 1.1 1.834.367 2.717 0 3.75 0h12.5c1.033 0 1.916.367 2.65 1.1.733.734 1.1 1.617 1.1 2.65Z" fill="#BDC4C9"/></svg><svg fill="none" viewBox="0 0 106 23" id="uber" xmlns="http://www.w3.org/2000/svg"><path fill-rule="evenodd" clip-rule="evenodd" d="M16.602 1.234V13.05c0 3.945-1.794 5.583-6.007 5.583-4.21 0-6.007-1.638-6.007-5.583V.717H.532C.177.717 0 .89 0 1.234v12.008c0 6.598 4.323 8.905 10.595 8.905 6.274 0 10.595-2.307 10.595-8.905V.717h-4.055c-.354 0-.533.173-.533.517ZM75.406 4.145c.332 0 .487-.108.597-.345L77.178.975c.067-.172 0-.258-.177-.258H60.664c-1.529 0-2.104.453-2.104 1.466v18.346c0 .863.442 1.251 1.617 1.251h15.229c.332 0 .487-.108.597-.345l1.175-2.824c.067-.173 0-.259-.177-.259H63.06v-3.73c0-1.293.732-1.876 2.703-1.876h6.052c.334 0 .487-.107.599-.344l1.13-2.717c.067-.172 0-.258-.177-.258H63.059V4.145h12.347ZM42.393 18.396H34.39v-3.86c0-1.293.73-1.875 2.705-1.875h5.3c2.548 0 3.257.949 3.257 2.89 0 1.94-.709 2.845-3.258 2.845ZM34.39 4.102h7.161c2.396 0 3.06.877 3.06 2.694 0 1.818-.664 2.696-3.06 2.696H34.39v-5.39Zm12.26 6.575c1.773-.905 2.504-2.608 2.504-4.613 0-4.657-3.9-5.347-7.934-5.347h-9.222c-1.529 0-2.105.453-2.105 1.466v18.346c0 .863.442 1.251 1.617 1.251h11.35c4.278 0 7.337-1.617 7.337-5.821 0-2.522-1.108-4.657-3.546-5.282ZM97.03 10.483h-7.535V4.102h7.536c2.816 0 3.436 1.056 3.436 3.19 0 2.156-.62 3.19-3.436 3.19Zm8.468 10.93-4.854-8.106c2.417-.603 4.367-2.155 4.367-6.1 0-5.11-3.258-6.49-8.644-6.49H87.1c-1.53 0-2.106.453-2.106 1.466v19.08c0 .344.177.517.532.517h3.968v-6.144c0-1.294.731-1.876 2.704-1.876h3.99l4.389 7.675c.133.216.267.345.599.345h4.122c.289 0 .289-.238.199-.367Z" fill="#A2AECF"/></svg><svg fill="none" viewBox="0 0 24 24" id="user" xmlns="http://www.w3.org/2000/svg"><path d="M18.559 19.549a7.003 7.003 0 0 0-13.118 0m13.118 0A9.976 9.976 0 0 0 22 12c0-5.523-4.477-10-10-10S2 6.477 2 12a9.977 9.977 0 0 0 3.441 7.549m13.118 0A9.961 9.961 0 0 1 12 22a9.961 9.961 0 0 1-6.559-2.451M15 9a3 3 0 1 1-6 0 3 3 0 0 1 6 0Z" stroke="#141718" stroke-width="1.5" stroke-linejoin="round"/></svg><svg fill="none" viewBox="0 0 24 24" id="user-star-line" xmlns="http://www.w3.org/2000/svg"><path d="M12 14v2a6 6 0 0 0-6 6H4a8 8 0 0 1 8-8Zm0-1c-3.315 0-6-2.685-6-6s2.685-6 6-6 6 2.685 6 6-2.685 6-6 6Zm0-2c2.21 0 4-1.79 4-4s-1.79-4-4-4-4 1.79-4 4 1.79 4 4 4Zm6 10.5-2.939 1.545.561-3.273-2.377-2.317 3.286-.477L18 14l1.47 2.977 3.285.478-2.377 2.318.56 3.272L18 21.5Z" fill="#000"/></svg><svg viewBox="0 0 497 497" id="website" xmlns="http://www.w3.org/2000/svg"><path d="M497 128.5v312c0 11.046-8.954 20-20 20H20c-11.046 0-20-8.954-20-20v-312z" fill="#faf8f8"/><path d="M290.498 294.5c0-23.196-18.804-42-42-42a41.823 41.823 0 0 0-19.482 4.782c-13.386 7.021-19.327 21.053-19.327 37.218 0 23.196 15.613 36.457 38.809 36.457 16.214 0 30.282-3.645 37.282-17.099a41.814 41.814 0 0 0 4.718-19.358z" fill="#dc4955"/><path d="M286.468 312.47c-6.73 14.21-21.2 24.03-37.97 24.03-23.2 0-42-18.8-42-42 0-16.77 9.82-31.24 24.03-37.97-2.59 5.45-4.03 11.54-4.03 17.97 0 23.2 18.8 42 42 42 6.43 0 12.52-1.44 17.97-4.03z" fill="#d82f3c"/><path d="M429.496 294.5c0-23.196-18.804-42-42-42a41.823 41.823 0 0 0-19.482 4.782c-13.386 7.021-19.327 21.053-19.327 37.218 0 23.196 15.613 36.457 38.809 36.457 16.214 0 30.282-3.645 37.282-17.099a41.814 41.814 0 0 0 4.718-19.358z" fill="#b7e546"/><path d="M425.466 312.47c-6.73 14.21-21.2 24.03-37.97 24.03-23.2 0-42-18.8-42-42 0-16.77 9.82-31.24 24.03-37.97-2.59 5.45-4.03 11.54-4.03 17.97 0 23.2 18.8 42 42 42 6.43 0 12.52-1.44 17.97-4.03z" fill="#abd641"/><path d="M497 148.5v-20l-276.011-12.798L0 128.5v312c0 11.046 8.954 20 20 20h15c-8.28 0-15-6.72-15-15v-291a6 6 0 0 1 6-6z" fill="#f0e9e6"/><path d="M497 56.5V129H0V56.5c0-11.046 8.954-20 20-20h457c11.046 0 20 8.954 20 20z" fill="#5d748a"/><g fill="#3f597d"><path d="M227.758 108.5c-8.255 0-14.947-6.716-14.947-15s6.692-15 14.947-15h208.315c8.255 0 14.947 6.716 14.947 15s-6.692 15-14.947 15z"/><ellipse cx="160.869" cy="93.5" rx="14.947" ry="15"/><path d="m171.361 104.184 12.874-12.869-13.139 1.179zM150.592 82.608l12.562-12.516-2.693 10.408z"/><ellipse cx="98.034" cy="93.5" rx="14.947" ry="15"/><path d="m108.553 104.157 12.382-12.499-12.674.836zM87.757 82.608l12.371-12.459L97.626 80.5z"/><ellipse cx="32.947" cy="93.5" rx="14.947" ry="15"/><path d="M43.769 103.846 56.49 90.66l-13.139 1.381zM22.67 82.608 34.292 70.57l-1.753 9.93z"/></g><ellipse cx="173.849" cy="80.5" fill="#b7e546" rx="14.947" ry="15"/><path d="m217.514 82.577 12.971-12.991-3.025 14.276zM446.83 103.915l13.149-13.179-10.185 3.381z" fill="#3f597d"/><ellipse cx="110.946" cy="80.5" fill="#ffbf54" rx="14.947" ry="15"/><ellipse cx="45.495" cy="80.5" fill="#dc4955" rx="14.947" ry="15"/><path d="M240.737 95.5c-8.255 0-14.947-6.716-14.947-15s6.692-15 14.947-15h208.315c8.255 0 14.947 6.716 14.947 15s-6.692 15-14.947 15z" fill="#faf8f8"/><path d="m135.893 215 226.628 2c5.523 0 10-4.477 10-10l3.479-7v-30c0-5.523-4.477-10-10-10H142l-6.107 5c-5.523 0-10 4.477-10 10v30c0 5.523 4.477 10 10 10z" fill="#aad8de"/><path d="M376 200v10c0 5.523-4.477 10-10 10H132c-5.523 0-10-4.477-10-10v-40c0-5.523 4.477-10 10-10h10v33a7 7 0 0 0 7 7z" fill="#94ccd4"/><path d="M151.5 294.5c0-23.196-18.804-42-42-42a41.823 41.823 0 0 0-19.482 4.782c-13.386 7.021-19.327 21.053-19.327 37.218 0 23.196 15.613 36.457 38.809 36.457 16.214 0 30.282-3.645 37.282-17.099A41.814 41.814 0 0 0 151.5 294.5z" fill="#ffbf54"/><path d="M147.47 312.47c-6.73 14.21-21.2 24.03-37.97 24.03-23.2 0-42-18.8-42-42 0-16.77 9.82-31.24 24.03-37.97-2.59 5.45-4.03 11.54-4.03 17.97 0 23.2 18.8 42 42 42 6.43 0 12.52-1.44 17.97-4.03z" fill="#ffa442"/><path d="M149.5 374h-70a7.5 7.5 0 0 1 0-15h70a7.5 7.5 0 0 1 0 15zM149.5 404h-80a7.5 7.5 0 0 1 0-15h80a7.5 7.5 0 0 1 0 15zM149.5 434h-80a7.5 7.5 0 0 1 0-15h80a7.5 7.5 0 0 1 0 15zM288.5 374h-70a7.5 7.5 0 0 1 0-15h70c4.143 0 7.5 3.358 7.5 7.5s-3.357 7.5-7.5 7.5zM288.5 404h-80a7.5 7.5 0 0 1 0-15h80c4.143 0 7.5 3.358 7.5 7.5s-3.357 7.5-7.5 7.5zM288.5 434h-80a7.5 7.5 0 0 1 0-15h80c4.143 0 7.5 3.358 7.5 7.5s-3.357 7.5-7.5 7.5zM427.5 374h-70c-4.143 0-7.5-3.358-7.5-7.5s3.357-7.5 7.5-7.5h70c4.143 0 7.5 3.358 7.5 7.5s-3.357 7.5-7.5 7.5zM427.5 404h-80c-4.143 0-7.5-3.358-7.5-7.5s3.357-7.5 7.5-7.5h80c4.143 0 7.5 3.358 7.5 7.5s-3.357 7.5-7.5 7.5zM427.5 434h-80c-4.143 0-7.5-3.358-7.5-7.5s3.357-7.5 7.5-7.5h80c4.143 0 7.5 3.358 7.5 7.5s-3.357 7.5-7.5 7.5z" fill="#f0e9e6"/></svg></svg>