<svg width="1183" height="769" viewBox="0 0 1183 769" fill="none" xmlns="http://www.w3.org/2000/svg">
<path style="mix-blend-mode:color-dodge" d="M234.383 383.823L168.604 341.065L167.574 341.736L233.343 384.494L234.383 383.823ZM229.269 387.141L163.49 344.444L162.46 345.115L228.24 387.812L229.269 387.141ZM219.041 393.79L153.272 351.032L152.189 351.703L217.968 394.461L219.041 393.79ZM198.595 407.087L132.816 364.329L131.732 365L197.512 407.758L198.595 407.087ZM208.823 400.438L143.044 357.68L142.015 358.351L207.783 401.109L208.823 400.438ZM213.927 397.12L148.158 354.423L147.129 355.094L212.897 397.852L213.927 397.12ZM224.155 390.533L158.386 347.774L157.303 348.445L223.126 391.142L224.155 390.533ZM239.497 380.566L173.718 337.869L172.689 338.54L238.457 381.237L239.497 380.566ZM254.829 370.587L189.06 327.768L187.977 328.439L253.756 371.136L254.829 370.587ZM203.709 403.756L137.93 361.059L136.9 361.73L202.68 404.427L203.709 403.756ZM249.715 373.856L183.946 331.098L182.863 331.769L248.642 374.527L249.715 373.856ZM244.601 377.174L178.832 334.416L177.749 335.087L243.604 377.845L244.601 377.174ZM596.62 148.354L530.84 105.657L529.757 106.328L595.579 148.989L596.62 148.354ZM571.049 164.97L505.28 122.272L504.251 122.943L570.02 165.702L571.049 164.97ZM576.163 161.651L510.394 118.954L509.311 119.625L575.155 162.322L576.163 161.651ZM611.919 138.388L546.15 95.6904L545.067 96.3614L610.911 139.059L611.919 138.388ZM617.033 135.057L551.318 92.3112L550.235 92.9822L616.014 135.679L617.033 135.057ZM606.837 141.669L541.068 98.972L539.985 99.6429L605.754 142.401L606.837 141.669ZM622.179 131.702L556.4 89.0053L555.371 89.6762L621.15 132.434L622.179 131.702ZM627.294 128.384L561.514 85.6871L560.431 86.358L626.199 129.116L627.294 128.384ZM581.277 158.284L515.563 115.563L514.479 116.234L580.259 158.931L581.277 158.284ZM591.505 151.636L525.726 108.939L524.697 109.61L590.476 152.307L591.505 151.636ZM586.391 154.966L520.612 112.245L519.528 112.916L585.308 155.613L586.391 154.966ZM601.723 145L535.954 102.241L534.925 102.912L600.694 145.67L601.723 145ZM571.081 630.527L636.85 673.285L637.879 672.614L572.111 629.917L571.081 630.527ZM565.967 633.857L631.736 676.616L632.819 675.945L567.04 633.248L565.967 633.857ZM560.853 637.176L626.622 679.873L627.705 679.202L561.926 636.505L560.853 637.176ZM576.239 627.294L642.018 669.991L643.048 669.321L577.279 626.562L576.239 627.294ZM555.739 640.616L621.518 683.313L622.548 682.642L556.768 639.945L555.739 640.616ZM606.859 607.373L672.638 650.07L673.667 649.399L607.899 606.641L606.859 607.373ZM601.755 610.703L667.524 653.462L668.553 652.791L602.785 610.032L601.755 610.703ZM596.641 614.022L662.41 656.78L663.493 656.109L597.714 613.412L596.641 614.022ZM611.994 604.018L677.774 646.715L678.803 646.044L613.035 603.286L611.994 604.018ZM581.321 623.952L647.1 666.649L648.129 665.978L582.361 623.22L581.321 623.952ZM591.549 617.315L657.317 660.013L658.401 659.342L592.621 616.644L591.549 617.315ZM586.435 620.634L652.214 663.331L653.243 662.66L587.464 619.963L586.435 620.634ZM969.095 371.892L1034.87 414.589L1035.96 413.918L970.189 371.221L969.095 371.892ZM974.209 368.574L1039.98 411.271L1041.06 410.6L975.282 367.842L974.209 368.574ZM984.437 361.925L1050.21 404.623L1051.29 403.952L985.467 361.254L984.437 361.925ZM979.302 365.244L1045.07 407.941L1046.15 407.282L980.374 364.585L979.302 365.244ZM963.959 375.21L1029.74 417.968L1030.77 417.298L964.999 374.539L963.959 375.21ZM933.285 395.144L999.065 437.902L1000.15 437.231L934.38 394.534L933.285 395.144ZM958.856 378.529L1024.62 421.226L1025.65 420.555L959.885 377.797L958.856 378.529ZM938.399 391.826L1004.22 434.584L1005.25 433.913L939.483 391.155L938.399 391.826ZM928.182 398.474L993.951 441.232L995.034 440.561L929.233 397.852L928.182 398.474ZM943.546 388.507L1009.33 431.205L1010.35 430.534L944.575 387.837L943.546 388.507ZM953.774 381.859L1019.54 424.617L1020.63 423.946L954.847 381.188L953.774 381.859ZM948.66 385.177L1014.44 427.935L1015.52 427.264L949.744 384.506L948.66 385.177ZM345.962 608.764L436.467 549.964H400.213L349.213 583.121C348.137 582.745 346.974 582.845 345.962 583.402C345.731 583.495 345.532 583.667 345.391 583.893C345.25 584.119 345.174 584.388 345.174 584.664C345.174 584.94 345.25 585.21 345.391 585.436C345.532 585.662 345.731 585.833 345.962 585.927C346.564 586.266 347.228 586.443 347.902 586.443C348.575 586.443 349.239 586.266 349.841 585.927C350.74 585.354 350.925 584.475 350.285 583.792L400.863 550.915H432.935L344.965 608.093L345.962 608.764ZM374.556 613.424C374.32 613.512 374.115 613.681 373.969 613.907C373.824 614.134 373.745 614.407 373.745 614.686C373.745 614.966 373.824 615.239 373.969 615.465C374.115 615.692 374.32 615.861 374.556 615.949C375.158 616.288 375.822 616.465 376.495 616.465C377.169 616.465 377.833 616.288 378.435 615.949C379.323 615.363 379.464 614.485 378.868 613.814L424.549 584.134L423.519 583.463L377.871 613.143C377.329 612.942 376.758 612.863 376.189 612.911C375.62 612.959 375.065 613.134 374.556 613.424V613.424ZM288.331 466.094L409.38 387.422L408.35 386.751L287.301 465.423L288.331 466.094ZM285.08 434.267V409.441H283.574V434.657L293.499 441.11L355.356 400.853L176.806 284.839L175.777 285.51L353.298 400.902L293.499 439.768L285.08 434.267ZM280.822 449.394L286.944 445.429L277.008 438.963V412.491L255.88 426.227L266.585 433.181L267.668 432.51L257.993 426.227L275.6 414.772V439.329L284.939 445.429L280.876 448.076L252.272 429.57L251.188 430.241L280.822 449.394ZM360.178 615.485C361.066 614.912 361.207 614.034 360.611 613.351L422.891 572.874L421.862 572.203L359.539 612.68C358.463 612.3 357.299 612.4 356.288 612.96C356.052 613.048 355.847 613.217 355.701 613.444C355.556 613.671 355.477 613.943 355.477 614.223C355.477 614.503 355.556 614.775 355.701 615.002C355.847 615.229 356.052 615.398 356.288 615.485C356.892 615.827 357.558 616.004 358.233 616.004C358.908 616.004 359.574 615.827 360.178 615.485V615.485ZM403.8 646.374L404.883 647.045L463.316 609.057V594.625L481.736 606.592L412.208 651.729L413.237 652.4L483.795 606.531L461.875 592.27V608.605L403.8 646.374ZM261.807 384.762L221.576 410.917L246.042 426.776L286.261 400.633L261.807 384.762ZM284.203 400.621L246.042 425.471L223.646 410.917L261.807 386.104L284.203 400.621ZM494.77 652.473L493.741 651.802L466.654 669.43L467.737 670.101L494.77 652.473ZM432.805 653.803L494.651 613.546L550.235 649.753H522.064L493.351 631.064L436.803 667.82L437.832 668.491L493.351 632.406L521.522 650.705H553.81L494.651 612.253L431.808 653.132L432.805 653.803ZM530.84 645.007L495.561 622.073L439.772 658.341L440.801 659.012L495.561 623.415L529.811 645.678L530.84 645.007ZM503.558 665.014L467.986 688.132L469.07 688.803L504.641 665.624L503.558 665.014ZM499.224 699.66L559.228 660.622H538.002L488.627 692.706L489.656 693.377L538.609 661.562H555.728L498.227 698.94L499.224 699.66ZM333.242 401.378L296.262 425.41V396.632L261.85 374.259L203.893 411.93L279.923 461.349L375.206 399.414L176.177 270.029L175.148 270.7L373.136 399.414L279.923 460.068L205.963 411.93L261.85 375.589L294.799 397.01V427.703L335.301 401.378L154.204 283.655L0 383.884L1.0835 384.555L154.247 284.985L333.242 401.378ZM568.654 660.354L497.002 706.931L498.032 707.601L568.654 661.696L625.69 698.769L701.113 649.741L568.134 563.31L567.105 563.981L699.032 649.741L625.668 697.427L568.654 660.354ZM518.618 667.295L501.174 655.95L469.167 676.762L456.241 668.357L495.247 643.019L514.479 655.523H559.445V654.572H515.021L495.193 641.677L454.139 668.357L469.135 678.116L501.141 657.304L516.527 667.308L476.177 693.426L477.207 694.109L518.618 667.295ZM336.395 602.542L337.478 603.213L408.621 556.966L407.592 556.295L336.395 602.542ZM691.339 182.5L661.836 163.311L660.752 163.981L689.237 182.5L685.174 185.147L675.845 179.047H637.999L655.605 167.605L665.281 173.899L666.31 173.228L655.605 166.263L634.477 179.999H675.271L685.207 186.465L691.339 182.5ZM632.148 144.024L591.917 170.179L616.383 186.038L656.613 159.968L632.148 144.024ZM654.544 159.883L616.383 184.732L593.987 170.179L632.148 145.329L654.544 159.883ZM599.859 5.36764L453.283 100.643L474.65 114.526L621.226 19.2503L599.859 5.36764ZM619.156 19.2503L474.65 113.184L455.342 100.643L599.859 6.70955L619.156 19.2503ZM668.683 184.366H629.883V185.306H668.077L676.539 190.82L616.74 229.686L439.219 114.258L438.19 114.929L616.74 230.992L678.608 190.734L668.683 184.366ZM633.665 132.532L575.708 170.203L610.109 192.576H654.414L617.423 216.609L438.428 100.192L591.592 0.670955L590.563 0L436.37 100.192L617.466 217.914L657.978 191.686H610.759L577.81 170.264L633.665 133.874L707.668 181.926L614.487 242.52L416.455 113.843L415.426 114.514L614.443 243.886L709.726 181.926L633.665 132.532ZM598.288 15.2368L468.463 99.6307L476.21 104.657L606.035 20.275L598.288 15.2368ZM603.977 20.275L476.21 103.315L470.532 99.6551L598.288 16.5787L603.977 20.275ZM769.514 324.193C770.402 323.62 770.598 322.742 769.947 322.058L826.355 285.388V250.169L733.173 310.713L734.203 311.384L824.87 252.45V284.997L768.886 321.388C767.811 321.001 766.645 321.102 765.635 321.668C765.399 321.756 765.194 321.925 765.048 322.152C764.903 322.378 764.824 322.651 764.824 322.931C764.824 323.21 764.903 323.483 765.048 323.71C765.194 323.936 765.399 324.106 765.635 324.193C766.237 324.533 766.901 324.709 767.575 324.709C768.248 324.709 768.912 324.533 769.514 324.193ZM813.027 278.959C813.259 278.868 813.461 278.699 813.603 278.473C813.746 278.248 813.822 277.979 813.822 277.702C813.822 277.426 813.746 277.156 813.603 276.931C813.461 276.706 813.259 276.536 813.027 276.446C812.425 276.106 811.761 275.93 811.088 275.93C810.415 275.93 809.751 276.106 809.149 276.446C808.26 277.019 808.065 277.897 808.715 278.581L729.619 330.025C728.543 329.642 727.377 329.747 726.369 330.317C726.137 330.408 725.936 330.577 725.793 330.803C725.651 331.028 725.574 331.297 725.574 331.574C725.574 331.85 725.651 332.12 725.793 332.345C725.936 332.57 726.137 332.74 726.369 332.83C726.971 333.17 727.635 333.346 728.308 333.346C728.982 333.346 729.646 333.17 730.248 332.83C731.136 332.257 731.277 331.379 730.681 330.696L809.831 279.252C810.891 279.618 812.034 279.513 813.027 278.959ZM731.862 166.726L789.494 129.263L788.41 128.592L730.345 166.336V190.624L592.936 280.02L468.16 198.908V169.288L399.628 124.761L398.545 125.432L466.697 169.727V199.347L592.936 281.411L731.862 191.137V166.726ZM596.013 266.101L717.029 187.416L716.011 186.806L594.983 265.418L596.013 266.101ZM577.452 255.866L578.536 255.195L488.226 196.565V176.351L593.998 245.106L595.027 244.435L486.763 174.058V196.907L577.452 255.866ZM683.787 69.389L623.783 108.426H645.03L694.406 76.3303L693.376 75.6593L644.424 107.438H627.304L684.817 70.0599L683.787 69.389ZM745.189 100.509L689.682 136.594L661.511 118.295H629.233L688.371 156.747L751.214 115.868L750.184 115.197L688.327 155.454L632.711 119.296H660.882L689.638 137.985L746.186 101.229L745.189 100.509ZM614.389 108.646L686.052 62.0695L684.968 61.3985L614.389 107.304L557.364 70.2307L481.974 119.271L614.942 205.69L615.971 205.019L484 119.271L557.364 71.5726L614.389 108.646ZM820.027 242.105C819.425 241.766 818.761 241.589 818.087 241.589C817.414 241.589 816.75 241.766 816.148 242.105C815.259 242.678 815.064 243.557 815.715 244.24L702.868 317.618L703.897 318.289L816.776 244.911C817.852 245.293 819.019 245.188 820.027 244.618C820.259 244.528 820.46 244.358 820.603 244.133C820.745 243.908 820.821 243.638 820.821 243.362C820.821 243.085 820.745 242.816 820.603 242.59C820.46 242.365 820.259 242.195 820.027 242.105V242.105ZM652.192 124.005L687.471 146.927L743.261 110.659L742.231 109.951L687.471 145.548L653.222 123.37L652.192 124.005ZM770.89 117.271L769.861 116.6L699.292 162.408L721.222 176.669V160.334L779.222 122.638L778.139 121.967L719.76 159.968V174.4L701.34 162.432L770.89 117.271ZM688.262 116.588L689.291 117.259L716.379 99.6307L715.35 98.9598L688.262 116.588ZM621.215 42.8557L592.394 61.5937L616.068 77.0135L644.9 58.2755L621.215 42.8557ZM642.831 58.2511L616.068 75.6471L594.453 61.5571L621.215 44.1611L642.831 58.2511ZM664.425 101.741L681.87 113.086L713.844 92.238L726.846 100.643L687.84 125.981L668.597 113.477H623.588V114.428H668.012L687.84 127.323L728.883 100.643L713.898 90.8839L681.87 111.708L666.495 101.705L706.844 75.5862L705.761 74.9152L664.425 101.741ZM622.754 33.0964L577.398 62.5574L614.541 86.6996L659.885 57.2142L622.754 33.0964ZM657.827 57.2142L614.541 85.3577L579.489 62.5574L622.83 34.4139L657.827 57.2142ZM679.497 104.035L715.068 80.8562L714.039 80.1852L678.446 103.364L679.497 104.035ZM624.574 21.434L559.499 63.7407L612.71 98.3376L677.796 56.0309L624.574 21.434ZM675.726 56.0309L612.71 96.9957L561.557 63.7407L624.574 22.7759L675.726 56.0309ZM806.581 235.859C805.692 236.445 805.497 237.323 806.147 237.994L693.257 311.372L694.286 312.043L807.166 238.665C808.24 239.051 809.406 238.951 810.416 238.384C810.652 238.297 810.857 238.127 811.003 237.901C811.148 237.674 811.227 237.401 811.227 237.122C811.227 236.842 811.148 236.569 811.003 236.343C810.857 236.116 810.652 235.947 810.416 235.859C809.82 235.528 809.164 235.355 808.498 235.355C807.833 235.355 807.177 235.528 806.581 235.859V235.859ZM453.521 332.83C454.124 333.17 454.788 333.346 455.461 333.346C456.134 333.346 456.798 333.17 457.4 332.83C457.632 332.74 457.834 332.57 457.976 332.345C458.118 332.12 458.195 331.85 458.195 331.574C458.195 331.297 458.118 331.028 457.976 330.803C457.834 330.577 457.632 330.408 457.4 330.317C456.392 329.747 455.226 329.642 454.15 330.025L375.054 278.581C375.639 277.897 375.498 277.019 374.61 276.446C374.008 276.106 373.344 275.93 372.671 275.93C371.997 275.93 371.333 276.106 370.731 276.446C370.495 276.533 370.29 276.703 370.144 276.929C369.999 277.156 369.92 277.429 369.92 277.708C369.92 277.988 369.999 278.261 370.144 278.487C370.29 278.714 370.495 278.883 370.731 278.971C371.742 279.531 372.906 279.631 373.982 279.252L453.077 330.757C452.492 331.379 452.622 332.257 453.521 332.83ZM480.815 317.618L367.936 244.24C368.521 243.557 368.391 242.678 367.491 242.105C366.889 241.766 366.225 241.589 365.552 241.589C364.879 241.589 364.215 241.766 363.612 242.105C363.38 242.195 363.179 242.365 363.037 242.59C362.894 242.816 362.818 243.085 362.818 243.362C362.818 243.638 362.894 243.908 363.037 244.133C363.179 244.358 363.38 244.528 363.612 244.618C364.621 245.188 365.787 245.293 366.863 244.911L479.807 318.289L480.815 317.618ZM798.053 536.667L704.872 476.11L703.843 476.781L794.532 535.703H744.474L688.49 499.325C689.086 498.642 688.945 497.776 688.056 497.19C687.454 496.851 686.79 496.674 686.117 496.674C685.444 496.674 684.78 496.851 684.177 497.19C683.941 497.278 683.736 497.447 683.591 497.674C683.445 497.9 683.367 498.173 683.367 498.453C683.367 498.732 683.445 499.005 683.591 499.232C683.736 499.458 683.941 499.627 684.177 499.715C685.187 500.281 686.353 500.382 687.428 499.996L743.835 536.667H798.053ZM307.4 204.849C307.985 204.166 307.855 203.299 306.956 202.714C306.354 202.375 305.69 202.198 305.017 202.198C304.343 202.198 303.679 202.375 303.077 202.714C302.846 202.807 302.647 202.979 302.506 203.205C302.365 203.431 302.289 203.7 302.289 203.976C302.289 204.253 302.365 204.522 302.506 204.748C302.647 204.974 302.846 205.146 303.077 205.239C304.087 205.805 305.253 205.906 306.328 205.52L350.654 234.383V245.875L311.279 220.256L310.25 220.927L352.116 248.144V233.956L307.4 204.849ZM702.879 450.784L815.693 524.199C815.108 524.882 815.249 525.748 816.137 526.334C816.739 526.673 817.403 526.85 818.077 526.85C818.75 526.85 819.414 526.673 820.016 526.334C820.252 526.246 820.457 526.077 820.603 525.85C820.748 525.623 820.827 525.351 820.827 525.071C820.827 524.792 820.748 524.519 820.603 524.292C820.457 524.066 820.252 523.896 820.016 523.809C819.006 523.242 817.84 523.142 816.766 523.528L703.897 450.15L702.879 450.784ZM285.86 226.502C286.456 225.819 286.315 224.941 285.427 224.367C284.825 224.028 284.161 223.852 283.487 223.852C282.814 223.852 282.15 224.028 281.548 224.367C281.316 224.458 281.115 224.628 280.972 224.853C280.83 225.078 280.753 225.347 280.753 225.624C280.753 225.9 280.83 226.17 280.972 226.395C281.115 226.62 281.316 226.79 281.548 226.88C282.556 227.451 283.722 227.556 284.799 227.173L335.398 260.001V280.85L247.429 223.721L246.345 224.392L336.85 283.18V259.66L285.86 226.502ZM315.971 199.322L360.687 228.393H382.487L340.621 201.165L339.591 201.836L378.966 227.454H361.283L317 198.664C317.585 197.981 317.444 197.102 316.556 196.529C315.954 196.19 315.29 196.013 314.616 196.013C313.943 196.013 313.279 196.19 312.677 196.529C312.445 196.619 312.244 196.789 312.101 197.014C311.959 197.239 311.882 197.509 311.882 197.785C311.882 198.062 311.959 198.331 312.101 198.557C312.244 198.782 312.445 198.951 312.677 199.042C313.696 199.618 314.876 199.719 315.96 199.322H315.971ZM238.641 245.777L284.289 275.445L285.373 274.774L239.671 245.106C240.267 244.423 240.126 243.557 239.237 242.971C238.635 242.632 237.971 242.455 237.298 242.455C236.624 242.455 235.96 242.632 235.358 242.971C235.122 243.059 234.917 243.228 234.772 243.455C234.626 243.682 234.548 243.954 234.548 244.234C234.548 244.513 234.626 244.786 234.772 245.013C234.917 245.239 235.122 245.409 235.358 245.496C236.377 246.073 237.557 246.173 238.641 245.777ZM255.977 218.17L254.894 218.841L326.037 265.088L327.066 264.417L255.977 218.17ZM357.372 250.169V285.388L413.714 322.058C413.118 322.742 413.258 323.62 414.147 324.193C414.749 324.533 415.413 324.709 416.086 324.709C416.76 324.709 417.424 324.533 418.026 324.193C418.262 324.106 418.467 323.936 418.613 323.71C418.758 323.483 418.837 323.21 418.837 322.931C418.837 322.651 418.758 322.378 418.613 322.152C418.467 321.925 418.262 321.756 418.026 321.668C417.016 321.102 415.85 321.001 414.775 321.388L358.791 284.997V252.462L449.469 311.396L450.498 310.725L357.372 250.169ZM674.838 471.608C674.235 471.269 673.571 471.092 672.898 471.092C672.225 471.092 671.561 471.269 670.959 471.608C670.723 471.696 670.517 471.865 670.372 472.092C670.226 472.319 670.148 472.591 670.148 472.871C670.148 473.151 670.226 473.423 670.372 473.65C670.517 473.877 670.723 474.046 670.959 474.134C671.968 474.7 673.135 474.8 674.209 474.414L753.305 525.87C752.709 526.541 752.85 527.42 753.738 528.005C754.34 528.344 755.004 528.521 755.678 528.521C756.351 528.521 757.015 528.344 757.617 528.005C757.853 527.917 758.058 527.748 758.204 527.521C758.349 527.295 758.428 527.022 758.428 526.743C758.428 526.463 758.349 526.19 758.204 525.964C758.058 525.737 757.853 525.568 757.617 525.48C756.607 524.914 755.441 524.813 754.367 525.199L675.217 473.743C675.791 473.06 675.65 472.194 674.762 471.608H674.838ZM508.91 296.831C509.512 297.17 510.176 297.346 510.85 297.346C511.523 297.346 512.187 297.17 512.789 296.831C513.025 296.743 513.23 296.574 513.376 296.347C513.521 296.12 513.6 295.848 513.6 295.568C513.6 295.288 513.521 295.016 513.376 294.789C513.23 294.562 513.025 294.393 512.789 294.305C511.781 293.735 510.615 293.63 509.539 294.013L430.389 242.569C430.985 241.885 430.844 241.007 429.955 240.434C429.353 240.095 428.689 239.918 428.016 239.918C427.343 239.918 426.678 240.095 426.076 240.434C425.84 240.521 425.635 240.691 425.49 240.917C425.344 241.144 425.266 241.417 425.266 241.696C425.266 241.976 425.344 242.249 425.49 242.475C425.635 242.702 425.84 242.871 426.076 242.959C427.086 243.525 428.252 243.626 429.327 243.24L508.422 294.684C507.881 295.379 507.978 296.245 508.91 296.831ZM366.3 146.451L365.216 147.122L423.443 184.94L424.473 184.269L366.3 146.451ZM368.358 161.456L421.862 196.236L422.891 195.565L369.388 160.785C369.983 160.102 369.843 159.236 368.954 158.65C368.352 158.311 367.688 158.135 367.015 158.135C366.341 158.135 365.677 158.311 365.075 158.65C364.839 158.738 364.634 158.907 364.488 159.134C364.343 159.361 364.265 159.633 364.265 159.913C364.265 160.193 364.343 160.465 364.488 160.692C364.634 160.919 364.839 161.088 365.075 161.176C366.094 161.752 367.274 161.853 368.358 161.456V161.456ZM670.883 294.305C670.651 294.396 670.45 294.565 670.307 294.791C670.165 295.016 670.088 295.285 670.088 295.562C670.088 295.838 670.165 296.108 670.307 296.333C670.45 296.558 670.651 296.728 670.883 296.818C671.482 297.167 672.147 297.349 672.822 297.349C673.497 297.349 674.162 297.167 674.762 296.818C675.65 296.245 675.791 295.367 675.195 294.684L754.345 243.24C755.421 243.616 756.583 243.515 757.595 242.959C757.826 242.865 758.026 242.694 758.167 242.468C758.308 242.242 758.384 241.973 758.384 241.696C758.384 241.42 758.308 241.151 758.167 240.925C758.026 240.699 757.826 240.527 757.595 240.434C756.992 240.093 756.326 239.915 755.651 239.915C754.975 239.915 754.309 240.093 753.706 240.434C752.817 241.007 752.622 241.885 753.272 242.569L674.177 294.013C673.087 293.617 671.903 293.722 670.883 294.305ZM687.46 268.431C686.384 268.048 685.218 268.153 684.21 268.724C683.978 268.814 683.777 268.984 683.634 269.209C683.492 269.434 683.415 269.704 683.415 269.98C683.415 270.257 683.492 270.526 683.634 270.751C683.777 270.977 683.978 271.146 684.21 271.237C684.812 271.576 685.476 271.753 686.149 271.753C686.823 271.753 687.487 271.576 688.089 271.237C688.977 270.663 689.118 269.785 688.522 269.102L744.507 232.712H794.565L703.875 291.646L704.905 292.317L798.086 231.772H743.911L687.46 268.431ZM337.424 165.214L336.341 165.885L407.483 212.132L408.513 211.461L337.424 165.214ZM349.213 185.318L400.213 218.524H436.467L346.016 159.724L344.987 160.395L432.946 217.585H400.82L350.242 184.647C350.838 183.964 350.697 183.085 349.809 182.512C349.209 182.163 348.544 181.981 347.869 181.981C347.194 181.981 346.529 182.163 345.93 182.512C345.698 182.602 345.496 182.772 345.354 182.997C345.212 183.223 345.135 183.492 345.135 183.769C345.135 184.045 345.212 184.315 345.354 184.54C345.496 184.765 345.698 184.935 345.93 185.025C346.947 185.605 348.127 185.71 349.213 185.318V185.318ZM730.161 435.596C729.559 435.257 728.895 435.08 728.222 435.08C727.548 435.08 726.884 435.257 726.282 435.596C726.046 435.684 725.841 435.853 725.696 436.08C725.55 436.307 725.472 436.579 725.472 436.859C725.472 437.139 725.55 437.411 725.696 437.638C725.841 437.865 726.046 438.034 726.282 438.122C727.292 438.688 728.458 438.788 729.533 438.402L808.628 489.858C808.032 490.529 808.173 491.408 809.062 491.993C809.664 492.332 810.328 492.509 811.001 492.509C811.675 492.509 812.339 492.332 812.941 491.993C813.177 491.905 813.382 491.736 813.528 491.509C813.673 491.283 813.751 491.01 813.751 490.731C813.751 490.451 813.673 490.178 813.528 489.952C813.382 489.725 813.177 489.556 812.941 489.468C811.931 488.902 810.765 488.801 809.69 489.187L730.54 437.731C731.18 437.06 731.05 436.182 730.161 435.596ZM271.298 317.337H302.319L392.585 376.003L393.615 375.332L302.926 316.386H267.777L376.04 386.763L377.124 386.092L271.298 317.337ZM826.355 518.258V483.039L769.947 446.38C770.543 445.697 770.402 444.819 769.514 444.233C768.912 443.894 768.248 443.717 767.575 443.717C766.901 443.717 766.237 443.894 765.635 444.233C765.399 444.321 765.194 444.49 765.048 444.717C764.903 444.944 764.824 445.216 764.824 445.496C764.824 445.776 764.903 446.048 765.048 446.275C765.194 446.502 765.399 446.671 765.635 446.759C766.643 447.329 767.81 447.434 768.886 447.051L824.87 483.442V515.977L734.203 457.042L733.173 457.713L826.355 518.258ZM530.038 280.667C529.453 281.35 529.583 282.228 530.483 282.802C531.085 283.141 531.749 283.317 532.422 283.317C533.095 283.317 533.759 283.141 534.362 282.802C534.594 282.711 534.795 282.541 534.937 282.316C535.08 282.091 535.156 281.821 535.156 281.545C535.156 281.269 535.08 280.999 534.937 280.774C534.795 280.549 534.594 280.379 534.362 280.288C533.353 279.718 532.187 279.613 531.111 279.996L447.107 225.392H395.132L319.991 176.595L318.907 177.266L394.471 226.392H446.414L530.038 280.667ZM385.618 231.772L478.8 292.317L479.883 291.646L389.216 232.712H439.273L495.258 269.102C494.673 269.785 494.803 270.663 495.702 271.237C496.302 271.585 496.967 271.767 497.642 271.767C498.316 271.767 498.982 271.585 499.581 271.237C499.813 271.146 500.014 270.977 500.157 270.751C500.299 270.526 500.376 270.257 500.376 269.98C500.376 269.704 500.299 269.434 500.157 269.209C500.014 268.984 499.813 268.814 499.581 268.724C498.573 268.153 497.407 268.048 496.331 268.431L439.924 231.833L385.618 231.772ZM1029.76 464.484L1159.59 380.09L1151.84 375.064L1022.01 459.446L1029.76 464.484ZM1024.07 459.446L1151.84 376.406L1157.52 380.066L1029.76 463.142L1024.07 459.446ZM936.958 301.137L995.392 263.149L994.308 262.478L936.297 300.185H911.247L933.166 314.434L1003.72 268.541L1002.69 267.87L933.166 313.007L914.747 301.051L936.958 301.137ZM780.566 428.008C781.162 427.325 781.021 426.447 780.132 425.874C779.53 425.534 778.866 425.358 778.193 425.358C777.52 425.358 776.855 425.534 776.253 425.874C776.021 425.964 775.82 426.134 775.678 426.359C775.535 426.584 775.459 426.854 775.459 427.13C775.459 427.407 775.535 427.676 775.678 427.901C775.82 428.127 776.021 428.296 776.253 428.387C777.262 428.957 778.428 429.062 779.504 428.679L870.951 488.187H908.874L966.029 525.334L967.112 524.663L909.535 487.248H871.612L780.566 428.008ZM752.243 383.579L889.696 294.22H927.055L985.12 256.476L984.037 255.805L926.394 293.268H889.089L750.174 383.542L876.369 465.643H921.984L990.05 509.889L991.134 509.218L922.635 464.691H877.019L752.243 383.579ZM895.731 303.577L894.648 302.906L773.675 381.578L774.758 382.249L895.731 303.577ZM1001.03 360.035V339.052L972.855 320.753L1028.36 284.668L1027.33 283.997L970.785 320.753L999.541 339.442V357.741L943.925 321.583L1005.77 281.325L1004.69 280.654L941.845 321.534L1001.03 360.035ZM866.617 369.306L999.574 455.737L1075 406.696L1017.97 369.635L1088.59 323.718L1087.51 323.047L1015.85 369.635L1072.88 406.696L999.52 454.395L867.593 368.635L866.617 369.306ZM1024.03 327.999L1059.6 304.821L1058.52 304.15L1022.95 327.329L1024.03 327.999ZM846.334 603.213L847.364 602.542L776.221 556.295L775.137 556.966L846.334 603.213ZM1066.74 309.53L1026.55 335.758L1011.18 325.767L1043.23 304.955L1028.23 295.196L987.19 321.876L1007.03 334.77V363.694H1008.49V334.416L989.259 321.912L1028.27 296.574L1041.2 304.98L1009.18 325.791L1026.63 337.124L1067.8 310.225L1066.74 309.53ZM993.29 344.383L959.051 322.132L1013.81 286.534L1012.73 285.864L956.927 322.132L992.304 345.054L993.29 344.383ZM1066.68 318.289L1065.65 317.618L1016.27 349.714V363.523L1076.28 324.486L1075.19 323.815L1017.73 361.254V350.129L1066.68 318.289ZM431.884 178.108V202.75L523.353 262.209C522.757 262.88 522.898 263.759 523.787 264.344C524.389 264.683 525.053 264.86 525.726 264.86C526.399 264.86 527.063 264.683 527.666 264.344C527.901 264.256 528.107 264.087 528.252 263.86C528.398 263.634 528.476 263.361 528.476 263.082C528.476 262.802 528.398 262.529 528.252 262.303C528.107 262.076 527.901 261.907 527.666 261.819C526.656 261.253 525.49 261.152 524.415 261.538L433.401 202.36V177.718L375.791 140.291L374.762 140.962L431.884 178.108ZM867.701 569.116L822.985 540.046H801.196L843.062 567.262L844.146 566.591L804.771 540.973H822.443L866.737 569.763C866.141 570.446 866.282 571.312 867.17 571.898C867.772 572.237 868.436 572.414 869.11 572.414C869.783 572.414 870.447 572.237 871.049 571.898C871.285 571.81 871.49 571.641 871.636 571.414C871.781 571.187 871.86 570.915 871.86 570.635C871.86 570.355 871.781 570.083 871.636 569.856C871.49 569.63 871.285 569.46 871.049 569.373C870.534 569.081 869.973 568.909 869.398 568.865C868.823 568.821 868.246 568.906 867.701 569.116ZM376.495 238.665L489.375 312.043L490.404 311.372L377.525 238.043C378.121 237.372 377.98 236.493 377.091 235.908C376.489 235.569 375.825 235.392 375.152 235.392C374.478 235.392 373.814 235.569 373.212 235.908C372.976 235.996 372.771 236.165 372.626 236.392C372.48 236.618 372.402 236.891 372.402 237.17C372.402 237.45 372.48 237.723 372.626 237.949C372.771 238.176 372.976 238.345 373.212 238.433C374.237 238.993 375.416 239.076 376.495 238.665ZM807.177 529.762L694.341 456.408L693.311 457.079L806.191 530.457C805.595 531.14 805.735 532.019 806.624 532.592C807.226 532.931 807.89 533.108 808.563 533.108C809.237 533.108 809.901 532.931 810.503 532.592C810.739 532.504 810.944 532.335 811.09 532.108C811.235 531.882 811.313 531.609 811.313 531.329C811.313 531.05 811.235 530.777 811.09 530.55C810.944 530.324 810.739 530.155 810.503 530.067C809.994 529.771 809.438 529.592 808.867 529.539C808.296 529.487 807.721 529.563 807.177 529.762V529.762ZM834.459 583.121L783.459 549.964H747.259L837.72 608.764L838.75 608.093L750.78 550.915H782.852L833.43 583.792C832.845 584.475 832.975 585.354 833.874 585.927C834.476 586.266 835.14 586.443 835.814 586.443C836.487 586.443 837.151 586.266 837.753 585.927C837.989 585.839 838.194 585.67 838.34 585.443C838.485 585.217 838.564 584.944 838.564 584.664C838.564 584.385 838.485 584.112 838.34 583.885C838.194 583.659 837.989 583.489 837.753 583.402C836.731 582.822 835.547 582.721 834.459 583.121V583.121ZM653.633 487.76C654.229 487.077 654.089 486.211 653.2 485.625C652.598 485.286 651.934 485.109 651.261 485.109C650.587 485.109 649.923 485.286 649.321 485.625C649.085 485.713 648.88 485.882 648.734 486.109C648.589 486.335 648.511 486.608 648.511 486.888C648.511 487.167 648.589 487.44 648.734 487.667C648.88 487.893 649.085 488.063 649.321 488.15C650.331 488.717 651.497 488.817 652.572 488.431L736.597 543.022H788.54L863.681 591.819L864.765 591.148L789.147 542.083H737.204L653.633 487.76ZM876.271 563.541C875.686 564.225 875.827 565.103 876.716 565.676C877.315 566.025 877.98 566.207 878.655 566.207C879.33 566.207 879.995 566.025 880.595 565.676C880.827 565.586 881.028 565.416 881.17 565.191C881.313 564.966 881.389 564.696 881.389 564.42C881.389 564.143 881.313 563.874 881.17 563.648C881.028 563.423 880.827 563.254 880.595 563.163C879.586 562.593 878.42 562.488 877.344 562.87L833.029 534.08V522.601L872.403 548.219L873.487 547.548L831.61 520.332V534.483L876.271 563.541ZM944.326 534.483L882.057 493.994L880.974 494.665L943.254 535.154C942.668 535.837 942.799 536.703 943.698 537.289C944.3 537.628 944.964 537.805 945.637 537.805C946.311 537.805 946.975 537.628 947.577 537.289C947.808 537.195 948.007 537.024 948.148 536.798C948.289 536.572 948.365 536.302 948.365 536.026C948.365 535.75 948.289 535.48 948.148 535.254C948.007 535.028 947.808 534.857 947.577 534.763C946.567 534.197 945.401 534.097 944.326 534.483ZM747.844 421.579C747.608 421.667 747.403 421.836 747.257 422.063C747.112 422.29 747.033 422.562 747.033 422.842C747.033 423.122 747.112 423.394 747.257 423.621C747.403 423.848 747.608 424.017 747.844 424.105C748.854 424.671 750.02 424.772 751.094 424.385L834.665 478.708V512.524L910.239 561.65L911.323 560.98L836.182 512.183V478.367L752.156 423.714C752.752 423.031 752.611 422.165 751.723 421.579C751.121 421.24 750.457 421.064 749.783 421.064C749.11 421.064 748.446 421.24 747.844 421.579ZM897.822 541.937C897.237 542.62 897.367 543.486 898.267 544.071C898.869 544.411 899.533 544.587 900.206 544.587C900.879 544.587 901.543 544.411 902.145 544.071C902.381 543.984 902.587 543.814 902.732 543.588C902.878 543.361 902.956 543.089 902.956 542.809C902.956 542.529 902.878 542.257 902.732 542.03C902.587 541.803 902.381 541.634 902.145 541.546C901.136 540.98 899.97 540.879 898.895 541.266L848.328 508.389V487.54L936.287 544.718L937.37 544.047L846.919 485.247V508.779L897.822 541.937ZM945.031 522.65L899.393 493.006L898.31 493.677L943.958 523.345C943.362 524.028 943.503 524.907 944.391 525.48C944.995 525.821 945.661 525.999 946.336 525.999C947.011 525.999 947.677 525.821 948.281 525.48C948.513 525.389 948.714 525.22 948.857 524.995C948.999 524.769 949.076 524.5 949.076 524.223C949.076 523.947 948.999 523.677 948.857 523.452C948.714 523.227 948.513 523.057 948.281 522.967C947.276 522.388 946.109 522.275 945.031 522.65ZM927.694 550.269L928.778 549.598L857.624 503.351L856.595 504.022L927.694 550.269ZM1002.72 320.924L1003.8 321.595L1030.89 303.967L1029.8 303.296L1002.72 320.924ZM843.062 201.165L801.196 228.381H822.996L867.701 199.322C868.777 199.705 869.943 199.6 870.951 199.03C871.183 198.939 871.385 198.77 871.527 198.544C871.67 198.319 871.746 198.05 871.746 197.773C871.746 197.497 871.67 197.227 871.527 197.002C871.385 196.777 871.183 196.607 870.951 196.517C870.349 196.177 869.685 196.001 869.012 196.001C868.339 196.001 867.675 196.177 867.073 196.517C866.184 197.09 865.989 197.968 866.639 198.652L822.346 227.442H804.717L844.091 201.823L843.062 201.165ZM911.724 451.65H880.703L790.447 392.972L789.364 393.643L880.053 452.59H915.202L807.025 382.213L805.941 382.884L911.724 451.65ZM857.549 265.088L928.702 218.841L927.619 218.17L856.476 264.417L857.549 265.088ZM834.665 289.718L751.084 344.041C750.008 343.659 748.841 343.764 747.833 344.334C747.601 344.425 747.4 344.594 747.258 344.819C747.115 345.045 747.039 345.314 747.039 345.591C747.039 345.867 747.115 346.137 747.258 346.362C747.4 346.587 747.601 346.757 747.833 346.847C748.435 347.186 749.099 347.363 749.773 347.363C750.446 347.363 751.11 347.186 751.712 346.847C752.601 346.274 752.741 345.396 752.145 344.712L836.149 290.109V256.341L911.29 207.545L910.207 206.874L834.643 255.988L834.665 289.718ZM736.597 225.392L652.593 279.996C651.517 279.613 650.351 279.718 649.343 280.288C649.111 280.379 648.91 280.549 648.767 280.774C648.625 280.999 648.548 281.269 648.548 281.545C648.548 281.821 648.625 282.091 648.767 282.316C648.91 282.541 649.111 282.711 649.343 282.802C649.945 283.141 650.609 283.317 651.282 283.317C651.956 283.317 652.62 283.141 653.222 282.802C654.11 282.228 654.305 281.35 653.655 280.667L737.226 226.344H789.147L864.721 177.218L863.638 176.547L788.486 225.343L736.597 225.392ZM809.116 155.015C809.352 154.927 809.557 154.758 809.703 154.531C809.848 154.305 809.927 154.032 809.927 153.752C809.927 153.473 809.848 153.2 809.703 152.973C809.557 152.747 809.352 152.578 809.116 152.49C808.514 152.151 807.85 151.974 807.177 151.974C806.503 151.974 805.839 152.151 805.237 152.49C804.338 153.063 804.154 153.942 804.793 154.625L759.145 184.293L760.228 184.964L805.876 155.296C806.952 155.676 808.116 155.575 809.127 155.015H809.116ZM750.325 177.718V202.36L659.311 261.538C658.236 261.152 657.07 261.253 656.06 261.819C655.825 261.907 655.619 262.076 655.474 262.303C655.328 262.529 655.25 262.802 655.25 263.082C655.25 263.361 655.328 263.634 655.474 263.86C655.619 264.087 655.825 264.256 656.06 264.344C656.663 264.683 657.327 264.86 658 264.86C658.673 264.86 659.337 264.683 659.939 264.344C660.839 263.759 660.969 262.88 660.384 262.209L751.766 202.75V178.108L808.91 140.962L807.827 140.291L750.325 177.718ZM848.285 260.001L898.862 227.124C899.939 227.507 901.105 227.402 902.113 226.832C902.345 226.741 902.546 226.572 902.689 226.346C902.831 226.121 902.908 225.852 902.908 225.575C902.908 225.299 902.831 225.029 902.689 224.804C902.546 224.579 902.345 224.409 902.113 224.319C901.511 223.979 900.847 223.803 900.173 223.803C899.5 223.803 898.836 223.979 898.234 224.319C897.335 224.892 897.151 225.77 897.79 226.453L846.789 259.599V283.18L937.24 224.38L936.157 223.709L848.198 280.898L848.285 260.001ZM761.81 196.187L824.09 155.698C825.165 156.085 826.331 155.984 827.341 155.418C827.576 155.33 827.782 155.161 827.927 154.934C828.073 154.707 828.151 154.435 828.151 154.155C828.151 153.875 828.073 153.603 827.927 153.376C827.782 153.149 827.576 152.98 827.341 152.892C826.738 152.553 826.074 152.377 825.401 152.377C824.728 152.377 824.064 152.553 823.462 152.892C822.573 153.478 822.378 154.356 823.028 155.027L760.748 195.516L761.81 196.187ZM783.48 218.414L834.492 185.269C835.568 185.652 836.734 185.547 837.742 184.976C837.978 184.889 838.183 184.719 838.329 184.493C838.474 184.266 838.553 183.993 838.553 183.714C838.553 183.434 838.474 183.161 838.329 182.935C838.183 182.708 837.978 182.539 837.742 182.451C837.14 182.112 836.476 181.935 835.803 181.935C835.129 181.935 834.465 182.112 833.863 182.451C832.975 183.037 832.834 183.915 833.419 184.598L782.852 217.536H750.78L838.75 160.346L837.72 159.675L747.259 218.524L783.48 218.414ZM776.156 212.083L847.309 165.836L846.226 165.165L775.083 211.412L776.156 212.083ZM873.454 220.854L872.425 220.195L833.04 245.814V234.383L877.333 205.593C878.408 205.979 879.574 205.879 880.584 205.312C880.82 205.225 881.025 205.055 881.171 204.829C881.316 204.602 881.394 204.329 881.394 204.05C881.394 203.77 881.316 203.497 881.171 203.271C881.025 203.044 880.82 202.875 880.584 202.787C879.982 202.448 879.318 202.271 878.644 202.271C877.971 202.271 877.307 202.448 876.705 202.787C875.816 203.373 875.621 204.239 876.271 204.922L831.545 233.993V248.168L873.454 220.854ZM849.791 367.622L886.771 343.59V372.38L921.172 394.753L979.128 357.07L903.11 307.651L807.827 369.599L1006.86 498.971L1007.94 498.3L809.885 369.599L903.066 308.993L977.026 357.07L921.128 393.412L888.288 371.99V341.297L847.775 367.622L1028.88 485.357L1183 385.116L1181.97 384.445L1028.83 484.015L849.791 367.622ZM921.226 384.238L961.446 358.083L936.991 342.224L896.761 368.379L921.226 384.238ZM898.83 368.379L937.045 343.529L959.441 358.083L921.226 382.896L898.83 368.379ZM902.265 319.643L896.132 323.632L906.079 330.098V356.594L927.207 342.87L916.459 335.868L915.375 336.539L925.127 342.834L907.52 354.277V329.659L898.18 323.559L902.265 320.997L930.75 339.528L931.833 338.857L902.265 319.643ZM898.039 334.733V359.559H899.502V334.343L889.577 327.89L827.709 368.147L1006.27 484.21L1007.3 483.539L829.778 368.098L889.577 329.232L898.039 334.733ZM1028.19 474.353L1174.77 379.077L1153.4 365.195L1006.82 460.47L1028.19 474.353ZM1008.89 460.47L1153.4 366.537L1172.71 379.077L1028.19 473.011L1008.89 460.47ZM938.844 239.336C939.08 239.248 939.285 239.079 939.43 238.852C939.576 238.625 939.654 238.353 939.654 238.073C939.654 237.793 939.576 237.521 939.43 237.294C939.285 237.068 939.08 236.898 938.844 236.811C938.242 236.471 937.578 236.295 936.904 236.295C936.231 236.295 935.567 236.471 934.965 236.811C934.076 237.396 933.881 238.262 934.521 238.945L881.017 273.725L882.101 274.396L935.604 239.616C936.675 239.999 937.837 239.899 938.844 239.336ZM899.393 275.445L957.61 237.628L956.526 236.957L898.299 274.774L899.393 275.445ZM870.951 280.24L779.493 339.698C778.418 339.312 777.252 339.413 776.243 339.979C776.007 340.067 775.801 340.236 775.656 340.463C775.51 340.689 775.432 340.962 775.432 341.242C775.432 341.521 775.51 341.794 775.656 342.021C775.801 342.247 776.007 342.417 776.243 342.504C776.845 342.844 777.509 343.02 778.182 343.02C778.855 343.02 779.519 342.844 780.121 342.504C781.01 341.919 781.205 341.053 780.555 340.369L871.569 281.191H909.492L967.069 243.764L965.985 243.093L908.874 280.24H870.951ZM1088.27 383.933L1117.1 365.195L1093.43 349.799L1064.64 368.574L1088.27 383.933ZM1066.6 368.537L1093.37 351.141L1115.04 365.195L1088.27 382.591L1066.6 368.537ZM1084.86 405.318L1149.94 363.011L1096.73 328.414L1031.74 370.721L1084.86 405.318ZM1033.8 370.721L1096.83 329.756L1147.98 363.011L1084.95 403.952L1033.8 370.721ZM1086.79 393.68L1132.14 364.194L1095 340.052L1049.64 369.538L1086.79 393.68ZM1051.71 369.538L1095 341.394L1130.07 364.194L1086.79 392.338L1051.71 369.538ZM605.569 513.147L604.54 513.817L694.807 572.496V592.649L589.035 523.894L588.006 524.565L696.269 594.942V572.093L605.569 513.147ZM403.54 425.91C402.651 426.484 402.456 427.362 403.106 428.045L312.092 487.223H274.169L216.592 524.724L217.676 525.382L274.819 488.236H312.742L404.2 428.789C405.276 429.172 406.443 429.067 407.451 428.496C407.683 428.406 407.884 428.236 408.027 428.011C408.169 427.786 408.246 427.516 408.246 427.24C408.246 426.963 408.169 426.694 408.027 426.469C407.884 426.243 407.683 426.074 407.451 425.983C406.85 425.627 406.182 425.434 405.503 425.422C404.824 425.409 404.151 425.576 403.54 425.91V425.91ZM156.501 433.23L171.876 443.221L139.869 464.033L154.854 473.792L195.93 447.112L176.047 434.218V405.342H174.585V434.62L193.817 447.125L154.811 472.462L141.885 464.057L173.924 443.233L156.469 431.9L115.295 458.738L116.379 459.409L156.501 433.23ZM247.45 544.706L335.42 487.528V508.377L284.777 541.266C283.702 540.879 282.536 540.98 281.526 541.546C281.29 541.634 281.085 541.803 280.94 542.03C280.794 542.257 280.716 542.529 280.716 542.809C280.716 543.089 280.794 543.361 280.94 543.588C281.085 543.814 281.29 543.984 281.526 544.071C282.128 544.411 282.792 544.587 283.466 544.587C284.139 544.587 284.803 544.411 285.405 544.071C286.294 543.486 286.489 542.62 285.839 541.937L336.839 508.779V485.247L246.388 544.047L247.45 544.706ZM116.346 450.699L117.43 451.37L166.805 419.274V405.477L106.801 444.514L107.884 445.185L165.397 407.807V418.932L116.346 450.699ZM255.967 550.269L327.109 503.985L326.08 503.314L254.937 549.598L255.967 550.269ZM244.828 529.103C244.597 529.197 244.398 529.368 244.257 529.594C244.116 529.82 244.04 530.089 244.04 530.366C244.04 530.642 244.116 530.911 244.257 531.137C244.398 531.363 244.597 531.535 244.828 531.628C245.43 531.968 246.094 532.144 246.768 532.144C247.441 532.144 248.105 531.968 248.707 531.628C249.606 531.043 249.736 530.164 249.151 529.481L302.655 494.714L301.571 494.043L248.068 528.81C246.995 528.431 245.833 528.536 244.828 529.103ZM180.306 448.064L179.222 447.393L152.135 465.009L153.218 465.679L180.306 448.064ZM181.996 409.026V430.009L210.167 448.308L154.659 484.393L155.688 485.064L212.182 448.308L183.459 429.57V411.271L239.075 447.43L177.218 487.687L178.301 488.358L241.144 447.478L181.996 409.026ZM110.127 362.304L183.491 314.605L315.418 400.365L316.502 399.694L183.491 313.263L108.058 362.304L165.093 399.377L94.4597 445.282L95.5432 445.953L167.195 399.377L110.127 362.304ZM271.775 468.815L249.866 454.566L179.298 500.435L180.381 501.106L249.921 455.908L268.34 467.863H246.063L187.63 505.851L188.714 506.522L246.713 468.815H271.775ZM159.091 441.013L123.508 464.13L124.592 464.801L160.163 441.684L159.091 441.013ZM189.732 424.617L223.982 446.868L169.221 482.466L170.305 483.137L226.094 446.868L190.772 423.946L189.732 424.617ZM496.211 499.996C497.286 500.382 498.452 500.281 499.462 499.715C499.693 499.622 499.892 499.45 500.033 499.224C500.174 498.998 500.25 498.729 500.25 498.453C500.25 498.176 500.174 497.907 500.033 497.681C499.892 497.455 499.693 497.284 499.462 497.19C498.858 496.849 498.192 496.671 497.517 496.671C496.842 496.671 496.176 496.849 495.572 497.19C494.684 497.776 494.543 498.642 495.139 499.325L439.198 535.703H389.14L479.807 476.781L478.724 476.11L385.543 536.667H439.718L496.211 499.996ZM316.556 571.971C317.444 571.385 317.639 570.519 316.989 569.836L361.283 541.046H378.955L339.58 566.664L340.61 567.335L382.476 540.119H360.676L315.96 569.19C314.885 568.803 313.719 568.904 312.71 569.47C312.474 569.558 312.268 569.727 312.123 569.954C311.977 570.181 311.899 570.453 311.899 570.733C311.899 571.012 311.977 571.285 312.123 571.512C312.268 571.738 312.474 571.908 312.71 571.995C313.312 572.317 313.973 572.478 314.64 572.466C315.308 572.453 315.963 572.267 316.556 571.922V571.971ZM227.091 531.506L285.319 493.689L284.235 493.018L226.062 530.823L227.091 531.506ZM534.362 488.126C534.592 488.032 534.792 487.861 534.933 487.635C535.074 487.409 535.15 487.14 535.15 486.863C535.15 486.587 535.074 486.318 534.933 486.092C534.792 485.866 534.592 485.694 534.362 485.601C533.759 485.262 533.095 485.085 532.422 485.085C531.749 485.085 531.085 485.262 530.483 485.601C529.583 486.186 529.453 487.052 530.038 487.736L446.468 542.059H394.525L318.961 591.209L320.045 591.88L395.186 543.083H447.129L531.122 488.48C532.202 488.84 533.363 488.713 534.362 488.126ZM306.36 562.883C305.286 562.496 304.119 562.597 303.11 563.163C302.874 563.251 302.669 563.42 302.523 563.647C302.377 563.874 302.299 564.146 302.299 564.426C302.299 564.706 302.377 564.978 302.523 565.205C302.669 565.431 302.874 565.601 303.11 565.688C303.712 566.028 304.376 566.204 305.049 566.204C305.722 566.204 306.387 566.028 306.989 565.688C307.888 565.103 308.072 564.225 307.433 563.541L352.116 534.483V520.307L310.239 547.524L311.323 548.195L350.697 522.576V534.056L306.36 562.883ZM508.91 471.608C508.022 472.194 507.881 473.06 508.477 473.743L429.381 525.199C428.306 524.813 427.14 524.914 426.131 525.48C425.895 525.568 425.689 525.737 425.544 525.964C425.398 526.19 425.32 526.463 425.32 526.743C425.32 527.022 425.398 527.295 425.544 527.521C425.689 527.748 425.895 527.917 426.131 528.005C426.733 528.344 427.397 528.521 428.07 528.521C428.743 528.521 429.407 528.344 430.009 528.005C430.898 527.42 431.039 526.541 430.443 525.87L509.593 474.414C510.667 474.8 511.833 474.7 512.843 474.134C513.079 474.046 513.284 473.877 513.43 473.65C513.575 473.423 513.654 473.151 513.654 472.871C513.654 472.591 513.575 472.319 513.43 472.092C513.284 471.865 513.079 471.696 512.843 471.608C512.234 471.259 511.56 471.077 510.877 471.077C510.193 471.077 509.519 471.259 508.91 471.608ZM370.644 489.468C370.409 489.556 370.203 489.725 370.058 489.952C369.912 490.178 369.834 490.451 369.834 490.731C369.834 491.01 369.912 491.283 370.058 491.509C370.203 491.736 370.409 491.905 370.644 491.993C371.247 492.332 371.911 492.509 372.584 492.509C373.257 492.509 373.921 492.332 374.523 491.993C375.412 491.408 375.553 490.541 374.968 489.858L454.063 438.402C455.138 438.788 456.304 438.688 457.314 438.122C457.545 438.028 457.744 437.857 457.885 437.631C458.026 437.405 458.102 437.135 458.102 436.859C458.102 436.583 458.026 436.313 457.885 436.087C457.744 435.861 457.545 435.69 457.314 435.596C456.712 435.257 456.048 435.08 455.374 435.08C454.701 435.08 454.037 435.257 453.435 435.596C452.535 436.182 452.351 437.06 452.991 437.731L373.841 489.187C372.783 488.817 371.639 488.918 370.644 489.468ZM431.949 421.579C431.06 422.165 430.865 423.031 431.516 423.714L347.512 478.367V512.134L272.371 560.931L273.454 561.602L348.974 512.524V478.708L432.545 424.385C433.62 424.772 434.786 424.671 435.795 424.105C436.031 424.017 436.237 423.848 436.382 423.621C436.528 423.394 436.606 423.122 436.606 422.842C436.606 422.562 436.528 422.29 436.382 422.063C436.237 421.836 436.031 421.667 435.795 421.579C435.198 421.246 434.539 421.073 433.872 421.073C433.205 421.073 432.547 421.246 431.949 421.579V421.579ZM414.158 444.209C413.269 444.782 413.128 445.661 413.724 446.344L357.372 483.039V518.27L450.553 457.713L449.523 457.042L358.856 515.977V483.442L414.797 447.051C415.873 447.434 417.039 447.329 418.048 446.759C418.28 446.668 418.481 446.498 418.623 446.273C418.766 446.048 418.842 445.778 418.842 445.502C418.842 445.226 418.766 444.956 418.623 444.731C418.481 444.506 418.28 444.336 418.048 444.246C417.449 443.889 416.784 443.7 416.107 443.693C415.43 443.687 414.761 443.864 414.158 444.209V444.209ZM489.375 456.408L376.495 529.762C375.419 529.379 374.253 529.484 373.245 530.055C373.013 530.145 372.812 530.315 372.669 530.54C372.527 530.765 372.45 531.035 372.45 531.311C372.45 531.588 372.527 531.857 372.669 532.082C372.812 532.308 373.013 532.477 373.245 532.568C373.847 532.907 374.511 533.083 375.184 533.083C375.858 533.083 376.522 532.907 377.124 532.568C378.012 531.994 378.207 531.116 377.557 530.433L490.436 457.055L489.375 456.408ZM479.807 450.15L366.895 523.504C365.821 523.117 364.655 523.218 363.645 523.784C363.409 523.872 363.204 524.041 363.058 524.268C362.913 524.495 362.834 524.767 362.834 525.047C362.834 525.327 362.913 525.599 363.058 525.826C363.204 526.052 363.409 526.222 363.645 526.309C364.247 526.649 364.911 526.825 365.584 526.825C366.258 526.825 366.922 526.649 367.524 526.309C368.423 525.724 368.553 524.858 367.968 524.175L480.847 450.796L479.807 450.15ZM404.168 339.698L312.71 280.24H274.787L217.6 243.093L216.516 243.764L274.159 281.191H312.081L403.095 340.369C402.51 341.053 402.64 341.919 403.54 342.504C404.142 342.844 404.806 343.02 405.479 343.02C406.152 343.02 406.816 342.844 407.418 342.504C407.649 342.411 407.849 342.239 407.99 342.013C408.131 341.787 408.207 341.518 408.207 341.242C408.207 340.966 408.131 340.696 407.99 340.47C407.849 340.244 407.649 340.073 407.418 339.979C406.4 339.403 405.22 339.302 404.135 339.698H404.168ZM192.972 259.111L191.942 259.782L260.441 304.309H306.013L430.79 385.421L293.337 474.78H255.977L197.902 512.524L198.985 513.195L256.606 475.732H293.965L432.892 385.458L306.609 303.357H261.048L192.972 259.111ZM451.17 602.225L393.528 639.689L394.611 640.36L452.676 602.615V578.327L590.086 488.98L714.927 570.092V599.712L783.372 644.276L784.455 643.605L716.336 599.322V569.702L590.086 487.638L451.17 577.912V602.225ZM433.347 566.079L524.361 506.901C525.436 507.28 526.6 507.18 527.611 506.62C527.847 506.532 528.053 506.363 528.198 506.136C528.344 505.91 528.422 505.637 528.422 505.357C528.422 505.078 528.344 504.805 528.198 504.578C528.053 504.352 527.847 504.182 527.611 504.095C527.009 503.755 526.345 503.579 525.672 503.579C524.999 503.579 524.335 503.755 523.732 504.095C522.844 504.668 522.703 505.546 523.299 506.23L431.83 565.688V590.331L374.708 627.477L375.737 628.148L433.314 590.721L433.347 566.079ZM549.281 636.468L607.238 598.797L572.826 576.424H528.565L565.545 552.391L744.583 668.772L591.408 768.329L592.491 769L746.685 668.772L565.577 551.049L525.076 577.375H572.284L605.233 598.797L549.325 635.126L475.365 587.049L568.546 526.456L766.545 655.157L767.629 654.486L568.6 525.175L473.306 587.049L549.281 636.468ZM587.074 502.911L466.003 581.584L467.033 582.255L588.049 503.582L587.074 502.911ZM656.06 504.131C655.825 504.219 655.619 504.388 655.474 504.615C655.328 504.842 655.25 505.114 655.25 505.394C655.25 505.674 655.328 505.946 655.474 506.173C655.619 506.4 655.825 506.569 656.06 506.657C657.072 507.217 658.236 507.317 659.311 506.937L750.325 566.115V590.758L807.902 628.185L808.986 627.514L751.766 590.331V565.688L660.308 506.23C660.893 505.546 660.763 504.668 659.864 504.095C659.264 503.759 658.604 503.585 657.935 503.585C657.266 503.585 656.606 503.759 656.006 504.095L656.06 504.131ZM817.437 622.024L818.521 621.353L760.304 583.536L759.221 584.207L817.437 622.024ZM236.019 231.114C235.787 231.204 235.586 231.374 235.444 231.599C235.301 231.824 235.225 232.094 235.225 232.37C235.225 232.647 235.301 232.916 235.444 233.141C235.586 233.367 235.787 233.536 236.019 233.627C237.028 234.197 238.194 234.302 239.27 233.919L301.549 274.396L302.633 273.725L240.353 233.248C240.949 232.565 240.808 231.687 239.92 231.114C239.315 230.77 238.647 230.592 237.97 230.592C237.292 230.592 236.624 230.77 236.019 231.114V231.114ZM435.785 346.847C436.017 346.757 436.218 346.587 436.36 346.362C436.503 346.137 436.579 345.867 436.579 345.591C436.579 345.314 436.503 345.045 436.36 344.819C436.218 344.594 436.017 344.425 435.785 344.334C434.776 343.764 433.61 343.659 432.534 344.041L348.964 289.718V255.963L273.4 206.837L272.317 207.508L347.457 256.305V290.06L431.461 344.664C430.865 345.347 431.006 346.225 431.895 346.798C432.498 347.165 433.171 347.361 433.856 347.369C434.541 347.378 435.218 347.199 435.828 346.847H435.785ZM550.831 624.989L591.061 598.834L566.607 582.975L526.398 609.081L550.831 624.989ZM528.435 609.13L566.607 584.317L589.003 598.87L550.831 623.683L528.435 609.13ZM815.27 607.031L761.767 572.252L760.738 572.923L814.284 607.678C813.688 608.349 813.829 609.227 814.718 609.813C815.32 610.152 815.984 610.329 816.657 610.329C817.331 610.329 817.995 610.152 818.597 609.813C818.833 609.725 819.038 609.556 819.183 609.329C819.329 609.103 819.407 608.83 819.407 608.55C819.407 608.271 819.329 607.998 819.183 607.771C819.038 607.545 818.833 607.375 818.597 607.288C817.581 606.703 816.401 606.594 815.314 606.983L815.27 607.031ZM96.2475 375.32L50.8921 404.806L88.0345 428.948L133.379 399.462L96.2475 375.32ZM131.32 399.462L88.0345 427.606L52.9074 404.806L96.2475 376.662L131.32 399.462ZM566.964 692.048L538.132 710.786L561.807 726.181L590.639 707.443L566.964 692.048ZM588.58 707.443L561.807 724.79L540.191 710.737L566.964 693.341L588.58 707.443ZM98.0678 363.694L32.9818 406.001L86.2034 440.549L151.289 398.242L98.0678 363.694ZM149.22 398.291L86.2034 439.256L35.0513 406.001L98.0678 365.036L149.22 398.291ZM153.272 304.528L23.447 388.922L31.194 393.96L161.019 309.567L153.272 304.528ZM158.961 309.567L31.2374 392.606L25.549 388.947L153.316 305.895L158.961 309.567ZM154.832 294.659L8.26713 389.923L29.6338 403.805L176.199 308.53L154.832 294.659ZM174.14 308.542L29.6338 402.476L10.3258 389.923L154.832 295.989L174.14 308.542ZM94.7089 385.079L65.9094 403.805L89.584 419.201L118.416 400.463L94.7089 385.079ZM116.379 400.475L89.6165 417.871L67.9464 403.817L94.7089 386.421L116.379 400.475ZM491.726 586.5L521.24 605.69L522.324 605.019L493.828 586.5L497.891 583.853L507.231 589.953H545.088L527.481 601.395L517.73 595.076L516.7 595.747L527.405 602.713L548.534 588.977H507.762L497.815 582.511L491.726 586.5ZM514.382 584.67H553.171V583.731H514.956L506.483 578.229L566.282 539.363L743.803 654.755L744.886 654.084L566.325 538.021L504.468 578.278L514.382 584.67ZM708.426 654.474L561.85 749.75L583.217 763.632L729.793 668.357L708.426 654.474ZM727.723 668.357L583.217 762.29L563.92 749.75L708.426 655.816L727.723 668.357ZM570.366 670.662L505.28 712.969L558.491 747.566L623.534 705.271L570.366 670.662ZM621.475 705.271L558.448 746.236L507.296 712.981L570.323 672.016L621.475 705.271ZM568.492 682.313L523.147 711.786L560.29 735.928L605.634 706.491L568.492 682.313ZM603.565 706.491L560.225 734.635L525.206 711.786L568.546 683.642L603.565 706.491ZM706.812 664.392L576.987 748.737L584.734 753.763L714.559 669.369L706.812 664.392ZM712.5 669.418L584.734 752.421L579.056 748.762L706.812 665.71L712.5 669.418Z" fill="url(#paint0_linear_1_185)"/>
<defs>
<linearGradient id="paint0_linear_1_185" x1="591.5" y1="769" x2="591.5" y2="0" gradientUnits="userSpaceOnUse">
<stop stop-color="white" stop-opacity="0.5"/>
<stop offset="0.825" stop-color="white" stop-opacity="0.01"/>
</linearGradient>
</defs>
</svg>
